<?xml version="1.0" encoding="utf-8"?>
<!-- Generator: Adobe Illustrator 19.0.0, SVG Export Plug-In . SVG Version: 6.00 Build 0)  -->
<svg version="1.1" id="Layer_1" xmlns="http://www.w3.org/2000/svg" xmlns:xlink="http://www.w3.org/1999/xlink" x="0px" y="0px"
	 viewBox="0 0 100 100" style="enable-background:new 0 0 100 100;" xml:space="preserve">
<style type="text/css">
	.st0{fill:none;stroke:#EE3534;stroke-miterlimit:10;}
	.st1{fill:none;stroke:#EE2524;stroke-miterlimit:10;}
	.st2{fill:none;stroke:#ED1C24;stroke-width:0.5;stroke-miterlimit:10;}
</style>
<g id="XMLID_793_">
	<polyline id="XMLID_829_" class="st0" points="22.2,57.8 4.5,57.9 4.5,4.5 94.5,4.5 94.5,57.5 31.2,57.5 31.8,11.5 71.6,11.5 
		71.8,62.5 60.5,62.5 60.5,92.5 42.9,92.5 43.1,62.5 30,62.5 	"/>
	<polyline id="XMLID_828_" class="st1" points="26,63.5 18.5,63.5 18.5,94 	"/>
	<polyline id="XMLID_827_" class="st1" points="76,63.5 77.5,63.5 77.5,94 	"/>
	<rect id="XMLID_826_" x="29" y="65.9" class="st2" width="2.2" height="2.2"/>
	<rect id="XMLID_825_" x="35.1" y="65.9" class="st2" width="2.2" height="2.2"/>
	<rect id="XMLID_824_" x="47.5" y="60.5" class="st2" width="2.2" height="2.2"/>
	<rect id="XMLID_823_" x="47.5" y="65.9" class="st2" width="2.2" height="2.2"/>
	<rect id="XMLID_822_" x="47.5" y="72" class="st2" width="2.2" height="2.2"/>
	<rect id="XMLID_821_" x="47.5" y="78" class="st2" width="2.2" height="2.2"/>
	<rect id="XMLID_820_" x="53.4" y="60.5" class="st2" width="2.2" height="2.2"/>
	<rect id="XMLID_819_" x="53.4" y="65.9" class="st2" width="2.2" height="2.2"/>
	<rect id="XMLID_818_" x="53.4" y="72" class="st2" width="2.2" height="2.2"/>
	<rect id="XMLID_817_" x="53.4" y="78" class="st2" width="2.2" height="2.2"/>
	<rect id="XMLID_816_" x="66.3" y="65.9" class="st2" width="2.2" height="2.2"/>
	<rect id="XMLID_815_" x="71.8" y="65.9" class="st2" width="2.2" height="2.2"/>
	<rect id="XMLID_814_" x="71.8" y="72" class="st2" width="2.2" height="2.2"/>
	<rect id="XMLID_813_" x="71.8" y="77.5" class="st2" width="2.2" height="2.2"/>
	<rect id="XMLID_812_" x="71.8" y="82.9" class="st2" width="2.2" height="2.2"/>
	<rect id="XMLID_811_" x="66.3" y="72" class="st2" width="2.2" height="2.2"/>
	<rect id="XMLID_810_" x="66.3" y="77.5" class="st2" width="2.2" height="2.2"/>
	<rect id="XMLID_809_" x="66.3" y="82.9" class="st2" width="2.2" height="2.2"/>
	<rect id="XMLID_808_" x="35.1" y="72" class="st2" width="2.2" height="2.2"/>
	<rect id="XMLID_807_" x="35.1" y="78" class="st2" width="2.2" height="2.2"/>
	<rect id="XMLID_806_" x="35.1" y="84" class="st2" width="2.2" height="2.2"/>
	<rect id="XMLID_805_" x="29" y="72" class="st2" width="2.2" height="2.2"/>
	<rect id="XMLID_804_" x="29" y="78" class="st2" width="2.2" height="2.2"/>
	<rect id="XMLID_803_" x="29" y="84" class="st2" width="2.2" height="2.2"/>
	<line id="XMLID_802_" class="st1" x1="41" y1="51.5" x2="79" y2="51.5"/>
	<polygon id="XMLID_801_" class="st1" points="43.5,36.4 43.5,21 57.7,28.7 	"/>
	<line id="XMLID_800_" class="st1" x1="63.5" y1="47" x2="63.5" y2="54"/>
	<line id="XMLID_799_" class="st1" x1="81" y1="51.5" x2="85" y2="51.5"/>
	<line id="XMLID_798_" class="st1" x1="35" y1="51.5" x2="39" y2="51.5"/>
	<line id="XMLID_797_" class="st1" x1="86" y1="51.5" x2="91" y2="51.5"/>
	<polyline id="XMLID_796_" class="st1" points="44.5,94 44.5,86.5 52.5,86.5 52.5,94 	"/>
	<line id="XMLID_795_" class="st1" x1="12" y1="94.5" x2="43" y2="94.5"/>
	<line id="XMLID_794_" class="st1" x1="61" y1="94.5" x2="91" y2="94.5"/>
</g>
</svg>
