<?xml version="1.0" encoding="utf-8"?>
<!-- Generator: Adobe Illustrator 19.0.0, SVG Export Plug-In . SVG Version: 6.00 Build 0)  -->
<svg version="1.1" id="Layer_1" xmlns="http://www.w3.org/2000/svg" xmlns:xlink="http://www.w3.org/1999/xlink" x="0px" y="0px"
	 viewBox="0 0 100 100" style="enable-background:new 0 0 100 100;" xml:space="preserve">
<style type="text/css">
	.st0{fill:#EC2227;stroke:#000000;stroke-miterlimit:10;}
	.st1{fill:#FFFFFF;stroke:#000000;stroke-miterlimit:10;}
	.st2{fill:none;stroke:#000000;stroke-miterlimit:10;}
	.st3{fill:#FCDEA2;stroke:#000000;stroke-miterlimit:10;}
	.st4{fill:#FCD463;stroke:#000000;stroke-miterlimit:10;}
	.st5{fill:#F5C359;}
	.st6{fill:#D5D6DC;}
	.st7{fill:#DC8743;}
	.st8{fill:#647A8A;stroke:#000000;stroke-miterlimit:10;}
	.st9{fill:#2EBFC8;stroke:#000000;stroke-miterlimit:10;}
</style>
<path id="_x37__2_" class="st0" d="M78.9,40.2l-1-11.2l-8.4-0.7C68.8,26.5,68,24.7,67,23l4.8-6.9l-8-7.9l-6.8,4.9
	c-1.7-1-3.5-1.9-5.4-2.5L51,2.3l-11.2-1l-2.1,8c-2,0.3-3.9,0.8-5.8,1.6l-5.8-5.8l-0.3,0.2L17,11.6l3.6,7.5c-1.3,1.5-2.5,3.2-3.4,4.9
	l-8.2-0.7L6,34.1l7.6,3.4c0,2,0.2,4,0.6,5.9l-6.8,4.7l4.8,10.2l8.1-2.2c1.3,1.5,2.7,2.9,4.2,4.1l-2.2,8.1l10.2,4.7l4.8-7
	c1.9,0.3,3.8,0.5,5.8,0.5l3.6,7.7l10.8-2.9L56.9,67l-0.4-4.2c0.8-0.5,1.6-1,2.4-1.5c0.8-0.6,1.6-1.2,2.3-1.8l7.7,3.6l6.4-9.2l-6.1-6
	c0.7-1.8,1.2-3.7,1.5-5.6L78.9,40.2z M52.6,52.4c-0.8,0.5-1.5,1-2.3,1.4c-7.8,3.9-17.4,1.6-22.6-5.7C22,40,23.9,28.8,32,23.1
	c0.7-0.5,1.4-0.9,2.2-1.3c7.8-4,17.6-1.8,22.7,5.6C62.7,35.6,60.7,46.7,52.6,52.4z"/>
<polygon id="XMLID_4875_" class="st1" points="97,92.2 89.6,92.2 47.6,92.2 47.6,35.2 97,35.2 "/>
<path id="XMLID_4877_" class="st1" d="M86.2,86.2h-42c0,0,0.3,3.4,3.4,5.9h42.7C90.3,92.2,86.8,90.4,86.2,86.2z"/>
<line id="XMLID_4878_" class="st2" x1="59.4" y1="44.2" x2="79.9" y2="44.2"/>
<line id="XMLID_4879_" class="st2" x1="69.7" y1="47" x2="79.9" y2="47"/>
<line id="XMLID_4882_" class="st2" x1="59.4" y1="55.5" x2="79.9" y2="55.5"/>
<line id="XMLID_4881_" class="st2" x1="69.7" y1="58.4" x2="79.9" y2="58.4"/>
<line id="XMLID_4884_" class="st2" x1="59.4" y1="66.2" x2="79.9" y2="66.2"/>
<line id="XMLID_4883_" class="st2" x1="69.7" y1="69.1" x2="79.9" y2="69.1"/>
<polyline id="XMLID_4876_" class="st2" points="84.6,45.2 86.2,47 91.3,42.5 "/>
<polyline id="XMLID_4887_" class="st2" points="84.6,67.2 86.2,69.1 91.3,64.5 "/>
<path id="XMLID_4885_" class="st2" d="M67.1,83.7c1.7-0.3,1.8-3.3,3.4-3.6c1.1-0.2,1.9,1,2.8,1.7c1.1,0.8,2.8,0.7,3.9-0.1
	c0.5-0.4,1-1.1,1.7-1.3c1.5-0.5,2.7,1.4,4.2,1.6c1.5,0.1,2.7-1.4,4.2-1.4"/>
<path id="XMLID_4863_" class="st3" d="M56.3,76.9L67,83.3l0.7-12.5C67.6,70.8,59.4,69.5,56.3,76.9z"/>
<polyline id="XMLID_4886_" class="st2" points="84.6,55.9 86.2,57.8 91.3,53.2 "/>
<line id="XMLID_4888_" class="st2" x1="47.6" y1="95.5" x2="61.9" y2="95.5"/>
<line id="XMLID_4889_" class="st2" x1="65.1" y1="98.4" x2="79.5" y2="98.4"/>
<line id="XMLID_4890_" class="st2" x1="55.4" y1="98.4" x2="58.2" y2="98.4"/>
<line id="XMLID_4891_" class="st2" x1="60.5" y1="98.4" x2="63.3" y2="98.4"/>
<line id="XMLID_4892_" class="st2" x1="63.5" y1="95.5" x2="66.3" y2="95.5"/>
<line id="XMLID_4893_" class="st2" x1="68.2" y1="95.5" x2="71.1" y2="95.5"/>
<line id="XMLID_4894_" class="st2" x1="39.4" y1="92.2" x2="47.6" y2="92.2"/>
<path id="XMLID_4873_" class="st4" d="M34.8,28.9c-4.8,3.3-6.6,10.6-3.9,15.8c1.8,3.5,5,5.7,8.5,6.4c1.9,0.4,3.6,1.5,4.6,3.2
	l10.4-6.3c-1-1.6-1.3-3.6-0.7-5.4c1-3.2,0.6-6.8-1.3-9.9C48.8,26.5,40.7,24.8,34.8,28.9z"/>
<circle id="XMLID_4872_" class="st5" cx="42" cy="39.1" r="9.3"/>
<path id="XMLID_4871_" class="st6" d="M34.4,27.1L34.4,27.1c-0.3,0.2-0.6,0.1-0.8-0.2l-1-1.6c-0.2-0.3-0.1-0.6,0.2-0.8l0,0
	c0.3-0.2,0.6-0.1,0.8,0.2l1,1.6C34.8,26.6,34.7,26.9,34.4,27.1z"/>
<path id="SVGCleanerId_0" class="st6" d="M28.9,33.7L28.9,33.7c-0.1,0.3-0.4,0.4-0.7,0.3l-1.6-0.7c-0.3-0.1-0.4-0.4-0.3-0.7l0,0
	c0.1-0.3,0.4-0.4,0.7-0.3l1.6,0.7C28.9,33.1,29,33.4,28.9,33.7z"/>
<path id="SVGCleanerId_1" class="st6" d="M29,42.4L29,42.4c0.1,0.3-0.1,0.6-0.4,0.6l-1.7,0.4c-0.3,0.1-0.6-0.1-0.6-0.4l0,0
	c-0.1-0.3,0.1-0.6,0.4-0.6l1.7-0.4C28.6,42,28.9,42.2,29,42.4z"/>
<g id="XMLID_4868_">
	<path id="SVGCleanerId_2_1_" class="st6" d="M51.5,28.2L51.5,28.2c-0.2-0.2-0.2-0.5-0.1-0.7l1.1-1.3c0.2-0.2,0.5-0.2,0.7-0.1l0,0
		c0.2,0.2,0.2,0.5,0.1,0.7l-1.1,1.3C52,28.3,51.7,28.3,51.5,28.2z"/>
</g>
<path id="XMLID_4867_" class="st6" d="M43.2,24.8L43.2,24.8c-0.3,0-0.5-0.3-0.5-0.5l0.1-1.6c0-0.3,0.3-0.5,0.5-0.5l0,0
	c0.3,0,0.5,0.3,0.5,0.5l-0.1,1.6C43.7,24.6,43.5,24.8,43.2,24.8z"/>
<path id="XMLID_4864_" class="st7" d="M50.7,51.3l-1.9,1.2c-0.2,0.1-0.4,0.1-0.5-0.1l-7.1-7.8c0,0,0,0,0-0.1l-1.7-2.9
	c-0.1-0.1-0.1-0.3,0-0.5c0.1-0.1,0.3-0.2,0.4-0.2c1,0.3,2.1,0.1,3-0.5c0.9-0.6,1.5-1.4,1.8-2.5c0-0.2,0.2-0.3,0.3-0.3
	c0.2,0,0.3,0.1,0.4,0.2l1.7,2.9c0,0,0,0,0,0.1l3.6,9.8C50.9,51,50.9,51.2,50.7,51.3z M48.6,51.5l1.3-0.8l-3.5-9.5l-1.2-2.1
	c-0.4,0.9-1,1.6-1.9,2.1c-0.8,0.5-1.8,0.7-2.7,0.7l1.2,2.1L48.6,51.5z"/>
<path id="XMLID_4857_" class="st8" d="M56.4,48.4c-0.4-0.6-1.2-0.9-1.9-0.5L44,54.3c-0.4,0.3-0.6,0.7-0.7,1.2c0,0.2,0.1,0.5,0.2,0.7
	c0.4,0.6,1.2,0.9,1.9,0.5l10.5-6.4c0.2-0.1,0.3-0.3,0.4-0.4C56.6,49.4,56.7,48.8,56.4,48.4z"/>
<path id="XMLID_4856_" class="st8" d="M57.7,50.6c-0.4-0.6-1.2-0.9-1.9-0.5l-10.5,6.4c-0.4,0.3-0.6,0.7-0.7,1.1l0,0
	c0,0.2,0.1,0.5,0.2,0.7c0.4,0.6,1.2,0.9,1.9,0.5l10.5-6.4c0.2-0.1,0.3-0.2,0.4-0.4l0,0C58,51.6,58,51.1,57.7,50.6z"/>
<path id="XMLID_497_" d="M62.6,80.6c0,0,1.6-3.7,4.6-1.8v5.1L62.6,80.6z"/>
<polygon id="XMLID_4858_" class="st9" points="47.6,61 56.2,76.7 59.4,73.7 62.4,74.4 63.6,71.6 67.6,70.6 59,54.2 "/>
<line id="XMLID_4859_" class="st2" x1="51.3" y1="58.8" x2="59.4" y2="73.7"/>
<line id="XMLID_4860_" class="st2" x1="55.4" y1="56.4" x2="63.6" y2="71.6"/>
<path id="XMLID_4874_" class="st8" d="M59.1,52.8c-0.4-0.6-1.2-0.9-1.9-0.5l-10.5,6.4c-0.4,0.3-0.6,0.7-0.7,1.2
	c0,0.2,0.1,0.5,0.2,0.7c0.4,0.6,1.2,0.9,1.9,0.5l10.5-6.4c0.2-0.1,0.3-0.3,0.4-0.4C59.3,53.9,59.4,53.3,59.1,52.8z"/>
</svg>
