<?xml version="1.0" encoding="utf-8"?>
<!-- Generator: Adobe Illustrator 19.0.0, SVG Export Plug-In . SVG Version: 6.00 Build 0)  -->
<svg version="1.1" id="Layer_1" xmlns="http://www.w3.org/2000/svg" xmlns:xlink="http://www.w3.org/1999/xlink" x="0px" y="0px"
	 viewBox="0 0 91.6 100" style="enable-background:new 0 0 91.6 100;" xml:space="preserve">
<style type="text/css">
	.st0{fill:#D7D6D6;stroke:#000000;stroke-miterlimit:10;}
	.st1{fill:#544C65;stroke:#000000;stroke-miterlimit:10;}
	.st2{fill:#F1F0F0;stroke:#000000;stroke-miterlimit:10;}
	.st3{opacity:0.25;fill:#236287;}
	.st4{fill:#CDCCCC;stroke:#000000;stroke-miterlimit:10;}
	.st5{fill:#CDD5D8;stroke:#000000;stroke-miterlimit:10;}
	.st6{fill:#70BBBC;}
	.st7{fill:#665C7A;}
	.st8{fill:#0592AA;}
	.st9{fill:none;stroke:#FFFFFF;stroke-width:0.25;stroke-linecap:round;stroke-linejoin:round;stroke-miterlimit:10;}
	.st10{fill:#FAA625;}
	.st11{fill:#FFFFFF;}
	.st12{fill:#F3F3F3;}
	.st13{fill:#157880;}
	.st14{fill:#FFFFFF;stroke:#000000;stroke-miterlimit:10;}
	.st15{fill:#D7D7DE;}
	.st16{fill:#EF443B;}
	.st17{fill:#68C6DC;}
	.st18{fill:#FEE606;}
	.st19{fill:#DBDAE0;}
	.st20{fill:#C4C4CA;}
	.st21{fill:#BCBBC0;}
	.st22{fill:#C1A22E;}
	.st23{fill:#F5EB30;}
	.st24{fill:#F9ED27;}
	.st25{fill:#DEC923;}
	.st26{opacity:0.42;fill:#7B8494;}
	.st27{fill:none;stroke:#000000;stroke-miterlimit:10;}
</style>
<rect id="XMLID_5039_" x="30.4" y="83.5" class="st0" width="26.5" height="9.4"/>
<path id="XMLID_5038_" class="st1" d="M85.4,28.6V73H1.9V28.6c0-0.9,0.7-1.5,1.5-1.5h80.4C84.7,27,85.4,27.7,85.4,28.6z"/>
<rect id="XMLID_5036_" x="24.3" y="92.3" class="st2" width="38.7" height="3.8"/>
<rect id="XMLID_5020_" x="30.4" y="84" class="st3" width="26.5" height="3"/>
<path id="XMLID_5019_" class="st2" d="M85.4,73v9.5c0,0.9-0.7,1.5-1.5,1.5H3.4c-0.9,0-1.5-0.7-1.5-1.5V73H85.4z"/>
<circle id="XMLID_5018_" class="st4" cx="43.6" cy="78.5" r="2.6"/>
<rect id="XMLID_5308_" x="5.9" y="31.2" class="st5" width="75.5" height="37.7"/>
<g id="XMLID_5285_">
	<rect id="XMLID_5303_" x="10.4" y="38.2" class="st6" width="32.5" height="23.2"/>
	<rect id="XMLID_5302_" x="11.5" y="39.1" class="st7" width="30.4" height="18.5"/>
	<circle id="XMLID_5301_" class="st8" cx="13" cy="59.5" r="1.6"/>
	<circle id="XMLID_5300_" class="st8" cx="16.5" cy="59.5" r="1.6"/>
	<polygon id="XMLID_5299_" class="st9" points="12.5,58.5 12.5,60.4 14,59.5 	"/>
	<circle id="XMLID_5298_" class="st10" cx="26.7" cy="48.3" r="3"/>
	<polygon id="XMLID_5297_" class="st11" points="25.6,46.5 25.6,50.1 28.5,48.3 	"/>
	<path id="XMLID_5296_" class="st3" d="M29.5,49.3c-0.4,1.1-1.4,1.9-2.7,2l-1.3-1.3l2.9-1.8L29.5,49.3z"/>
	<g id="XMLID_5294_">
		<path id="XMLID_5295_" class="st11" d="M16,60.4c-0.1,0-0.1-0.1-0.1-0.1v-1.7c0-0.1,0.1-0.1,0.1-0.1c0.1,0,0.1,0.1,0.1,0.1v1.7
			C16.2,60.4,16.1,60.4,16,60.4z"/>
	</g>
	<g id="XMLID_5292_">
		<path id="XMLID_5293_" class="st11" d="M16.9,60.4c-0.1,0-0.1-0.1-0.1-0.1v-1.7c0-0.1,0.1-0.1,0.1-0.1c0.1,0,0.1,0.1,0.1,0.1v1.7
			C17,60.4,17,60.4,16.9,60.4z"/>
	</g>
	<rect id="XMLID_5291_" x="19.7" y="58.4" class="st8" width="19.5" height="0.6"/>
	<circle id="XMLID_5290_" class="st12" cx="19.7" cy="58.6" r="0.7"/>
	<rect id="XMLID_5289_" x="40.2" y="58.4" class="st12" width="1.7" height="0.4"/>
	<rect id="XMLID_5288_" x="40.6" y="58.9" class="st12" width="1.3" height="0.4"/>
	<rect id="XMLID_5287_" x="41" y="59.5" class="st12" width="0.9" height="0.4"/>
	<rect id="XMLID_5286_" x="41.4" y="60.1" class="st12" width="0.4" height="0.4"/>
</g>
<rect id="XMLID_5284_" x="9.9" y="33.7" class="st12" width="64.9" height="3"/>
<circle id="XMLID_5283_" class="st6" cx="69" cy="33.6" r="1"/>
<circle id="XMLID_5282_" class="st6" cx="71.6" cy="33.6" r="1"/>
<circle id="XMLID_5281_" class="st6" cx="74.3" cy="33.6" r="1"/>
<rect id="XMLID_5280_" x="47.6" y="38.2" class="st12" width="28.4" height="2.5"/>
<rect id="XMLID_5279_" x="10.3" y="63.9" class="st12" width="17.9" height="2.5"/>
<rect id="XMLID_5278_" x="30.2" y="63.9" class="st12" width="10.4" height="2.5"/>
<rect id="XMLID_5277_" x="46.8" y="44.7" class="st12" width="13.7" height="1.6"/>
<rect id="XMLID_5276_" x="46.8" y="51.7" class="st12" width="13.2" height="1.6"/>
<rect id="XMLID_5275_" x="46.8" y="55.5" class="st12" width="13.7" height="1.6"/>
<rect id="XMLID_5274_" x="46.8" y="59.2" class="st12" width="9.7" height="1.6"/>
<rect id="XMLID_4902_" x="46.8" y="48.2" class="st12" width="9.7" height="1.6"/>
<rect id="XMLID_5273_" x="46.8" y="63" class="st12" width="12.4" height="1.6"/>
<rect id="XMLID_5219_" x="35.2" y="0.9" class="st13" width="55" height="4.2"/>
<circle id="XMLID_5218_" class="st12" cx="81.2" cy="3" r="1.2"/>
<polygon id="XMLID_4901_" class="st14" points="35.2,1 35.2,40.4 39,40.4 39,49 48.1,40.4 90.2,40.4 90.2,1 "/>
<circle id="XMLID_5217_" class="st12" cx="83.3" cy="4.3" r="1.2"/>
<circle id="XMLID_5216_" class="st12" cx="86.5" cy="4.3" r="1.2"/>
<rect id="XMLID_5215_" x="37.6" y="3" class="st12" width="17" height="1.6"/>
<rect id="XMLID_5214_" x="37.6" y="8.3" class="st15" width="21.5" height="17.4"/>
<path id="XMLID_5213_" class="st12" d="M54.2,17.7c0,3.5-2.9,6.4-6.4,6.4c-2.4,0-4.4-1.3-5.5-3.2l5.5-3.2H54.2z"/>
<path id="XMLID_5212_" class="st16" d="M55.4,17H49l2.9-5.6C54,12.4,55.4,14.6,55.4,17z"/>
<path id="XMLID_5211_" class="st17" d="M51.2,11.4L48.2,17v-6.4C49.3,10.6,50.3,10.9,51.2,11.4z"/>
<path id="XMLID_5210_" class="st18" d="M47.8,11.4v6.4l-2.3-5.9C46.2,11.5,47,11.4,47.8,11.4z"/>
<path id="XMLID_5209_" class="st16" d="M47.8,17.7l-5.5,3.2c-0.5-0.9-0.9-2-0.9-3.2c0-2.7,1.7-5,4.1-5.9L47.8,17.7z"/>
<rect id="XMLID_5208_" x="63" y="8.3" class="st19" width="24.8" height="1.8"/>
<rect id="XMLID_5207_" x="63" y="11.8" class="st19" width="24.8" height="0.9"/>
<rect id="XMLID_5206_" x="63" y="14.3" class="st19" width="24.8" height="0.9"/>
<rect id="XMLID_5205_" x="63" y="16.8" class="st19" width="24.8" height="0.9"/>
<rect id="XMLID_5204_" x="63" y="19.4" class="st19" width="24.8" height="0.9"/>
<rect id="XMLID_4903_" x="63" y="22.3" class="st19" width="24.8" height="0.9"/>
<rect id="XMLID_4904_" x="63" y="24.9" class="st19" width="24.8" height="0.9"/>
<g id="XMLID_5197_">
	<rect id="XMLID_5200_" x="42.4" y="30.9" class="st13" width="10.2" height="7.3"/>
	<rect id="XMLID_5199_" x="42.8" y="31.2" class="st20" width="9.5" height="5.8"/>
	<polygon id="XMLID_5198_" class="st11" points="46.7,32.9 46.7,35.3 48.6,34.1 	"/>
</g>
<g id="XMLID_5193_">
	<rect id="XMLID_5196_" x="57.5" y="30.9" class="st13" width="10.2" height="7.3"/>
	<rect id="XMLID_5195_" x="57.8" y="31.2" class="st20" width="9.5" height="5.8"/>
	<polygon id="XMLID_5194_" class="st11" points="61.7,32.9 61.7,35.3 63.7,34.1 	"/>
</g>
<g id="XMLID_5189_">
	<rect id="XMLID_5192_" x="73.3" y="30.9" class="st13" width="10.2" height="7.3"/>
	<rect id="XMLID_5191_" x="73.7" y="31.2" class="st20" width="9.5" height="5.8"/>
	<polygon id="XMLID_5190_" class="st11" points="77.6,32.9 77.6,35.3 79.5,34.1 	"/>
</g>
<rect id="XMLID_5184_" x="44" y="29.2" class="st21" width="4.7" height="0.5"/>
<rect id="XMLID_5182_" x="49.4" y="29.2" class="st21" width="2.2" height="0.5"/>
<rect id="XMLID_5181_" x="74" y="29.2" class="st21" width="6.2" height="0.5"/>
<rect id="XMLID_5180_" x="81.1" y="29.2" class="st21" width="1.8" height="0.5"/>
<rect id="XMLID_5179_" x="58.2" y="29.2" class="st21" width="4.7" height="0.5"/>
<rect id="XMLID_5176_" x="64.2" y="29.2" class="st21" width="2.4" height="0.5"/>
<g id="XMLID_5125_">
	<g id="XMLID_5158_">
		<path id="XMLID_5173_" class="st22" d="M70.8,20.7c-0.5,1.1-1.3,1.8-2.3,2c-0.1,0-0.3,0.1-0.5,0.1h-0.7c0.1,0,0.2,0,0.3,0
			c0.1,0,0.1,0,0.2,0c1-0.2,1.8-0.9,2.3-2c0.8-1.9,0.2-4.1-1.4-5.1c-0.3-0.2-0.7-0.3-1.1-0.4c-0.1,0-0.2,0-0.3,0H68
			c0.5,0,1,0.1,1.4,0.4c0.1,0.1,0.2,0.2,0.4,0.3c0.2,0.1,0.3,0.3,0.5,0.5C71.1,17.5,71.4,19.2,70.8,20.7z"/>
		<path id="XMLID_5172_" class="st23" d="M68.3,19.8c0,0.2-0.1,0.4-0.2,0.6c-0.1,0.1-0.2,0.2-0.4,0.2c0,0-0.1,0-0.2,0l0,0.4h-0.4
			l0-0.4c-0.1,0-0.2-0.1-0.3-0.1c-0.1-0.1-0.2-0.2-0.3-0.3c-0.1-0.1-0.1-0.3-0.1-0.5l0.6,0c0,0.2,0.1,0.3,0.2,0.4
			c0.1,0.1,0.2,0.1,0.2,0.1c0.1,0,0.2-0.1,0.3-0.2c0-0.1,0.1-0.1,0.1-0.2c0-0.1-0.1-0.3-0.2-0.4c-0.1-0.1-0.3-0.2-0.5-0.4
			c-0.2-0.2-0.3-0.3-0.4-0.4c-0.1-0.2-0.1-0.3-0.1-0.5c0-0.3,0.1-0.5,0.4-0.7c0.1-0.1,0.2-0.1,0.3-0.1v-0.4l0.4,0l0,0.4
			c0.1,0,0.2,0.1,0.3,0.1c0.1,0.1,0.2,0.2,0.3,0.3c0.1,0.1,0.1,0.2,0.1,0.4L67.7,18c0-0.1-0.1-0.2-0.1-0.3c-0.1-0.1-0.1-0.1-0.2-0.1
			c-0.1,0-0.2,0-0.2,0.1c0,0.1-0.1,0.2-0.1,0.3c0,0.2,0.1,0.3,0.2,0.5c0.1,0.1,0.1,0.1,0.3,0.2c0.1,0.1,0.2,0.2,0.3,0.2
			c0.1,0.1,0.3,0.3,0.3,0.4c0,0.1,0.1,0.1,0.1,0.2C68.2,19.6,68.3,19.7,68.3,19.8z"/>
		<path id="XMLID_5168_" class="st24" d="M68.7,15.6c-0.3-0.2-0.7-0.3-1.1-0.4c-0.1,0-0.2,0-0.3,0h0c-1,0-2,0.6-2.6,1.6
			c-0.1,0.1-0.2,0.3-0.2,0.5c-0.8,1.9-0.2,4.1,1.4,5.1c0.3,0.2,0.6,0.3,0.9,0.4c0.2,0,0.3,0,0.5,0h0c0.1,0,0.2,0,0.3,0
			c0.1,0,0.1,0,0.2,0c1-0.2,1.8-0.9,2.3-2C70.9,18.8,70.2,16.6,68.7,15.6z M69.6,20.4c-0.4,1-1.3,1.6-2.1,1.7h0
			c-0.5,0-0.9-0.1-1.3-0.3c-0.3-0.2-0.6-0.5-0.8-0.8c-0.6-0.9-0.8-2.2-0.3-3.4c0-0.1,0.1-0.2,0.2-0.3c0.1-0.1,0.1-0.2,0.2-0.3
			c0.5-0.7,1.2-1.1,2-1.1c0.1,0,0.1,0,0.2,0c0,0,0,0,0,0c0.3,0,0.7,0.1,1,0.3C69.7,17,70.2,18.9,69.6,20.4z"/>
		<path id="XMLID_5167_" class="st23" d="M68.3,19.8c0,0.2-0.1,0.4-0.2,0.6c-0.1,0.1-0.2,0.2-0.4,0.2c0,0-0.1,0-0.2,0l0,0.4h-0.4
			l0-0.4c-0.1,0-0.2-0.1-0.3-0.1c-0.1-0.1-0.2-0.2-0.3-0.3c-0.1-0.1-0.1-0.3-0.1-0.5l0.6,0c0,0.2,0.1,0.3,0.2,0.4
			c0.1,0.1,0.2,0.1,0.2,0.1c0.1,0,0.2-0.1,0.3-0.2c0-0.1,0.1-0.1,0.1-0.2c0-0.1-0.1-0.3-0.2-0.4c-0.1-0.1-0.3-0.2-0.5-0.4
			c-0.2-0.2-0.3-0.3-0.4-0.4c-0.1-0.2-0.1-0.3-0.1-0.5c0-0.3,0.1-0.5,0.4-0.7c0.1-0.1,0.2-0.1,0.3-0.1v-0.4l0.4,0l0,0.4
			c0.1,0,0.2,0.1,0.3,0.1c0.1,0.1,0.2,0.2,0.3,0.3c0.1,0.1,0.1,0.2,0.1,0.4L67.7,18c0-0.1-0.1-0.2-0.1-0.3c-0.1-0.1-0.1-0.1-0.2-0.1
			c-0.1,0-0.2,0-0.2,0.1c0,0.1-0.1,0.2-0.1,0.3c0,0.2,0.1,0.3,0.2,0.5c0.1,0.1,0.1,0.1,0.3,0.2c0.1,0.1,0.2,0.2,0.3,0.2
			c0.1,0.1,0.3,0.3,0.3,0.4c0,0.1,0.1,0.1,0.1,0.2C68.2,19.6,68.3,19.7,68.3,19.8z"/>
		<path id="XMLID_5163_" class="st23" d="M68.4,16.2c-0.3-0.2-0.6-0.3-1-0.3c-0.7,0.1-1.3,0.4-1.8,1.1c0,0,0,0,0,0
			c-0.1,0.2-0.2,0.4-0.3,0.6c-0.5,1.1-0.3,2.5,0.3,3.4c0.2,0.3,0.5,0.6,0.8,0.8c0.3,0.2,0.7,0.3,1,0.3c0.9-0.1,1.7-0.7,2.1-1.7
			C70.2,18.9,69.7,17,68.4,16.2z M68.1,20.4c-0.1,0.1-0.2,0.2-0.4,0.2c0,0-0.1,0-0.2,0l0,0.4h-0.4l0-0.4c-0.1,0-0.2-0.1-0.3-0.1
			c-0.1-0.1-0.2-0.2-0.3-0.3c-0.1-0.1-0.1-0.3-0.1-0.5l0.6,0c0,0.2,0.1,0.3,0.2,0.4c0.1,0.1,0.2,0.1,0.2,0.1c0.1,0,0.2-0.1,0.3-0.2
			c0-0.1,0.1-0.1,0.1-0.2c0-0.1-0.1-0.3-0.2-0.4c-0.1-0.1-0.3-0.2-0.5-0.4c-0.2-0.2-0.3-0.3-0.4-0.4c-0.1-0.2-0.1-0.3-0.1-0.5
			c0-0.3,0.1-0.5,0.4-0.7c0.1-0.1,0.2-0.1,0.3-0.1v-0.4l0.4,0l0,0.4c0.1,0,0.2,0.1,0.3,0.1c0.1,0.1,0.2,0.2,0.3,0.3
			c0.1,0.1,0.1,0.2,0.1,0.4L67.7,18c0-0.1-0.1-0.2-0.1-0.3c-0.1-0.1-0.1-0.1-0.2-0.1c-0.1,0-0.2,0-0.2,0.1c0,0.1-0.1,0.2-0.1,0.3
			c0,0.2,0.1,0.3,0.2,0.5c0.1,0.1,0.1,0.1,0.3,0.2c0.1,0.1,0.2,0.2,0.3,0.2c0.1,0.1,0.3,0.3,0.3,0.4c0,0.1,0.1,0.1,0.1,0.2
			c0.1,0.1,0.1,0.2,0.1,0.3C68.3,20,68.2,20.2,68.1,20.4z"/>
		<path id="XMLID_5162_" class="st22" d="M66.5,21.8c0.3,0.2,0.7,0.3,1,0.3c-0.5,0-0.9-0.1-1.3-0.3c-0.3-0.2-0.6-0.5-0.8-0.8
			c-0.6-0.9-0.8-2.3-0.3-3.4c0.1-0.2,0.2-0.4,0.3-0.6c0,0,0,0,0,0c0.5-0.8,1.3-1.2,2.2-1.1c-0.7,0.1-1.3,0.4-1.8,1.1c0,0,0,0,0,0
			c-0.1,0.2-0.2,0.4-0.3,0.6c-0.5,1.1-0.3,2.5,0.3,3.4C65.9,21.3,66.1,21.6,66.5,21.8z"/>
		<path id="XMLID_5161_" class="st23" d="M68.3,19.8c0,0.2-0.1,0.4-0.2,0.6c-0.1,0.1-0.2,0.2-0.4,0.2c0,0-0.1,0-0.2,0l0,0.4h-0.4
			l0-0.4c-0.1,0-0.2-0.1-0.3-0.1c-0.1-0.1-0.2-0.2-0.3-0.3c-0.1-0.1-0.1-0.3-0.1-0.5l0.6,0c0,0.2,0.1,0.3,0.2,0.4
			c0.1,0.1,0.2,0.1,0.2,0.1c0.1,0,0.2-0.1,0.3-0.2c0-0.1,0.1-0.1,0.1-0.2c0-0.1-0.1-0.3-0.2-0.4c-0.1-0.1-0.3-0.2-0.5-0.4
			c-0.2-0.2-0.3-0.3-0.4-0.4c-0.1-0.2-0.1-0.3-0.1-0.5c0-0.3,0.1-0.5,0.4-0.7c0.1-0.1,0.2-0.1,0.3-0.1v-0.4l0.4,0l0,0.4
			c0.1,0,0.2,0.1,0.3,0.1c0.1,0.1,0.2,0.2,0.3,0.3c0.1,0.1,0.1,0.2,0.1,0.4L67.7,18c0-0.1-0.1-0.2-0.1-0.3c-0.1-0.1-0.1-0.1-0.2-0.1
			c-0.1,0-0.2,0-0.2,0.1c0,0.1-0.1,0.2-0.1,0.3c0,0.2,0.1,0.3,0.2,0.5c0.1,0.1,0.1,0.1,0.3,0.2c0.1,0.1,0.2,0.2,0.3,0.2
			c0.1,0.1,0.3,0.3,0.3,0.4c0,0.1,0.1,0.1,0.1,0.2C68.2,19.6,68.3,19.7,68.3,19.8z"/>
		<path id="XMLID_5160_" class="st25" d="M69.6,20.4c-0.4,1-1.3,1.6-2.1,1.7h0c-0.3,0-0.7-0.1-1-0.3c-0.3-0.2-0.6-0.5-0.8-0.8
			c-0.7-0.9-0.8-2.3-0.3-3.4c0.1-0.2,0.2-0.4,0.3-0.6c0,0,0,0,0,0c0.5-0.6,1.1-1,1.8-1.1h0c0.3,0,0.7,0.1,1,0.3
			C69.7,17,70.2,18.9,69.6,20.4z"/>
		<path id="XMLID_5159_" class="st23" d="M68.3,19.8c0,0.2-0.1,0.4-0.2,0.6c-0.1,0.1-0.2,0.2-0.4,0.2c0,0-0.1,0-0.2,0l0,0.4h-0.4
			l0-0.4c-0.1,0-0.2-0.1-0.3-0.1c-0.1-0.1-0.2-0.2-0.3-0.3c-0.1-0.1-0.1-0.3-0.1-0.5l0.6,0c0,0.2,0.1,0.3,0.2,0.4
			c0.1,0.1,0.2,0.1,0.2,0.1c0.1,0,0.2-0.1,0.3-0.2c0-0.1,0.1-0.1,0.1-0.2c0-0.1-0.1-0.3-0.2-0.4c-0.1-0.1-0.3-0.2-0.5-0.4
			c-0.2-0.2-0.3-0.3-0.4-0.4c-0.1-0.2-0.1-0.3-0.1-0.5c0-0.3,0.1-0.5,0.4-0.7c0.1-0.1,0.2-0.1,0.3-0.1v-0.4l0.4,0l0,0.4
			c0.1,0,0.2,0.1,0.3,0.1c0.1,0.1,0.2,0.2,0.3,0.3c0.1,0.1,0.1,0.2,0.1,0.4L67.7,18c0-0.1-0.1-0.2-0.1-0.3c-0.1-0.1-0.1-0.1-0.2-0.1
			c-0.1,0-0.2,0-0.2,0.1c0,0.1-0.1,0.2-0.1,0.3c0,0.2,0.1,0.3,0.2,0.5c0.1,0.1,0.1,0.1,0.3,0.2c0.1,0.1,0.2,0.2,0.3,0.2
			c0.1,0.1,0.3,0.3,0.3,0.4c0,0.1,0.1,0.1,0.1,0.2C68.2,19.6,68.3,19.7,68.3,19.8z"/>
	</g>
	<g id="XMLID_5142_">
		<path id="XMLID_5157_" class="st22" d="M62.7,17.7c-0.4,0.9-1,1.4-1.7,1.5c-0.1,0-0.2,0-0.4,0H60c0.1,0,0.2,0,0.3,0
			c0,0,0.1,0,0.1,0c0.7-0.1,1.4-0.7,1.7-1.5c0.6-1.4,0.1-3.1-1.1-3.8c-0.3-0.2-0.5-0.3-0.8-0.3c-0.1,0-0.2,0-0.3,0h0.5
			c0.4,0,0.7,0.1,1.1,0.3c0.1,0,0.1,0.1,0.2,0.1c0.2,0.1,0.4,0.3,0.5,0.5C63,15.3,63.2,16.6,62.7,17.7z"/>
		<path id="XMLID_5156_" class="st23" d="M60.8,17c0,0.2,0,0.3-0.2,0.5c-0.1,0.1-0.2,0.2-0.3,0.2c0,0-0.1,0-0.1,0l0,0.3h-0.3l0-0.3
			c-0.1,0-0.2,0-0.2-0.1c-0.1-0.1-0.2-0.1-0.2-0.3c-0.1-0.1-0.1-0.2-0.1-0.4l0.4,0c0,0.2,0.1,0.3,0.1,0.3c0.1,0,0.1,0.1,0.2,0.1
			c0.1,0,0.2,0,0.2-0.1c0,0,0-0.1,0-0.2c0-0.1-0.1-0.2-0.2-0.3c-0.1-0.1-0.2-0.2-0.4-0.3c-0.1-0.1-0.3-0.2-0.3-0.3
			c-0.1-0.1-0.1-0.2-0.1-0.4c0-0.2,0.1-0.4,0.3-0.5c0.1,0,0.2-0.1,0.3-0.1v-0.3l0.3,0l0,0.3c0.1,0,0.2,0,0.2,0.1
			c0.1,0,0.2,0.1,0.2,0.2c0.1,0.1,0.1,0.2,0.1,0.3l-0.4,0.1c0-0.1,0-0.2-0.1-0.2c0,0-0.1-0.1-0.2-0.1c-0.1,0-0.1,0-0.2,0.1
			c0,0.1-0.1,0.1-0.1,0.2c0,0.1,0.1,0.2,0.2,0.4c0,0,0.1,0.1,0.2,0.2c0.1,0.1,0.2,0.1,0.2,0.2c0.1,0.1,0.2,0.2,0.3,0.3
			c0,0,0.1,0.1,0.1,0.1C60.8,16.8,60.8,16.9,60.8,17z"/>
		<path id="XMLID_5152_" class="st24" d="M61.1,13.8c-0.3-0.2-0.5-0.3-0.8-0.3c-0.1,0-0.2,0-0.3,0h0c-0.9,0-1.7,0.6-2.1,1.6
			c-0.4,1-0.3,2.1,0.2,3c0.2,0.4,0.5,0.7,0.9,0.9c0.2,0.1,0.5,0.2,0.7,0.3c0.1,0,0.2,0,0.4,0h0c0.1,0,0.2,0,0.3,0c0,0,0.1,0,0.1,0
			c0.7-0.1,1.4-0.7,1.7-1.5C62.8,16.3,62.3,14.6,61.1,13.8z M61.8,17.5c-0.3,0.8-1,1.2-1.6,1.3h0c-0.3,0-0.7,0-1-0.2
			c-0.3-0.1-0.5-0.3-0.6-0.6c-0.5-0.7-0.6-1.7-0.3-2.6c0.1-0.2,0.2-0.3,0.3-0.5c0.4-0.5,0.9-0.8,1.5-0.8c0,0,0.1,0,0.1,0h0
			c0.1,0,0.1,0,0.2,0c0.1,0,0.2,0.1,0.3,0.1c0.1,0,0.1,0.1,0.2,0.1C61.9,14.9,62.3,16.3,61.8,17.5z"/>
		<path id="XMLID_5151_" class="st23" d="M60.8,17c0,0.2,0,0.3-0.2,0.5c-0.1,0.1-0.2,0.2-0.3,0.2c0,0-0.1,0-0.1,0l0,0.3h-0.3l0-0.3
			c-0.1,0-0.2,0-0.2-0.1c-0.1-0.1-0.2-0.1-0.2-0.3c-0.1-0.1-0.1-0.2-0.1-0.4l0.4,0c0,0.2,0.1,0.3,0.1,0.3c0.1,0,0.1,0.1,0.2,0.1
			c0.1,0,0.2,0,0.2-0.1c0,0,0-0.1,0-0.2c0-0.1-0.1-0.2-0.2-0.3c-0.1-0.1-0.2-0.2-0.4-0.3c-0.1-0.1-0.3-0.2-0.3-0.3
			c-0.1-0.1-0.1-0.2-0.1-0.4c0-0.2,0.1-0.4,0.3-0.5c0.1,0,0.2-0.1,0.3-0.1v-0.3l0.3,0l0,0.3c0.1,0,0.2,0,0.2,0.1
			c0.1,0,0.2,0.1,0.2,0.2c0.1,0.1,0.1,0.2,0.1,0.3l-0.4,0.1c0-0.1,0-0.2-0.1-0.2c0,0-0.1-0.1-0.2-0.1c-0.1,0-0.1,0-0.2,0.1
			c0,0.1-0.1,0.1-0.1,0.2c0,0.1,0.1,0.2,0.2,0.4c0,0,0.1,0.1,0.2,0.2c0.1,0.1,0.2,0.1,0.2,0.2c0.1,0.1,0.2,0.2,0.3,0.3
			c0,0,0.1,0.1,0.1,0.1C60.8,16.8,60.8,16.9,60.8,17z"/>
		<path id="XMLID_5147_" class="st23" d="M60.9,14.3c-0.2-0.1-0.5-0.2-0.7-0.2c-0.5,0-1,0.3-1.4,0.8c0,0,0,0,0,0
			c-0.1,0.1-0.2,0.3-0.3,0.5c-0.4,0.9-0.2,1.9,0.3,2.6c0.2,0.2,0.4,0.4,0.6,0.6c0.2,0.1,0.5,0.2,0.8,0.2c0.7-0.1,1.3-0.5,1.6-1.3
			C62.3,16.3,61.9,14.9,60.9,14.3z M60.6,17.5c-0.1,0.1-0.2,0.2-0.3,0.2c0,0-0.1,0-0.1,0l0,0.3h-0.3l0-0.3c-0.1,0-0.2,0-0.2-0.1
			c-0.1-0.1-0.2-0.1-0.2-0.3c-0.1-0.1-0.1-0.2-0.1-0.4l0.4,0c0,0.2,0.1,0.3,0.1,0.3c0.1,0,0.1,0.1,0.2,0.1c0.1,0,0.2,0,0.2-0.1
			c0,0,0-0.1,0-0.2c0-0.1-0.1-0.2-0.2-0.3c-0.1-0.1-0.2-0.2-0.4-0.3c-0.1-0.1-0.3-0.2-0.3-0.3c-0.1-0.1-0.1-0.2-0.1-0.4
			c0-0.2,0.1-0.4,0.3-0.5c0.1,0,0.2-0.1,0.3-0.1v-0.3l0.3,0l0,0.3c0.1,0,0.2,0,0.2,0.1c0.1,0,0.2,0.1,0.2,0.2
			c0.1,0.1,0.1,0.2,0.1,0.3l-0.4,0.1c0-0.1,0-0.2-0.1-0.2c0,0-0.1-0.1-0.2-0.1c-0.1,0-0.1,0-0.2,0.1c0,0.1-0.1,0.1-0.1,0.2
			c0,0.1,0.1,0.2,0.2,0.4c0,0,0.1,0.1,0.2,0.2c0.1,0.1,0.2,0.1,0.2,0.2c0.1,0.1,0.2,0.2,0.3,0.3c0,0,0.1,0.1,0.1,0.1
			c0,0.1,0.1,0.2,0.1,0.3C60.8,17.2,60.7,17.3,60.6,17.5z"/>
		<path id="XMLID_5146_" class="st22" d="M59.4,18.5c0.2,0.1,0.5,0.2,0.8,0.2c-0.3,0-0.7,0-1-0.2c-0.2-0.1-0.5-0.4-0.6-0.6
			c-0.5-0.7-0.6-1.7-0.3-2.6c0.1-0.2,0.2-0.3,0.3-0.5c0,0,0,0,0,0c0.4-0.6,1-0.9,1.7-0.8c-0.5,0-1,0.3-1.4,0.8c0,0,0,0,0,0
			c-0.1,0.1-0.2,0.3-0.3,0.5c-0.4,0.9-0.2,1.9,0.3,2.6C59,18.2,59.2,18.4,59.4,18.5z"/>
		<path id="XMLID_5145_" class="st23" d="M60.8,17c0,0.2,0,0.3-0.2,0.5c-0.1,0.1-0.2,0.2-0.3,0.2c0,0-0.1,0-0.1,0l0,0.3h-0.3l0-0.3
			c-0.1,0-0.2,0-0.2-0.1c-0.1-0.1-0.2-0.1-0.2-0.3c-0.1-0.1-0.1-0.2-0.1-0.4l0.4,0c0,0.2,0.1,0.3,0.1,0.3c0.1,0,0.1,0.1,0.2,0.1
			c0.1,0,0.2,0,0.2-0.1c0,0,0-0.1,0-0.2c0-0.1-0.1-0.2-0.2-0.3c-0.1-0.1-0.2-0.2-0.4-0.3c-0.1-0.1-0.3-0.2-0.3-0.3
			c-0.1-0.1-0.1-0.2-0.1-0.4c0-0.2,0.1-0.4,0.3-0.5c0.1,0,0.2-0.1,0.3-0.1v-0.3l0.3,0l0,0.3c0.1,0,0.2,0,0.2,0.1
			c0.1,0,0.2,0.1,0.2,0.2c0.1,0.1,0.1,0.2,0.1,0.3l-0.4,0.1c0-0.1,0-0.2-0.1-0.2c0,0-0.1-0.1-0.2-0.1c-0.1,0-0.1,0-0.2,0.1
			c0,0.1-0.1,0.1-0.1,0.2c0,0.1,0.1,0.2,0.2,0.4c0,0,0.1,0.1,0.2,0.2c0.1,0.1,0.2,0.1,0.2,0.2c0.1,0.1,0.2,0.2,0.3,0.3
			c0,0,0.1,0.1,0.1,0.1C60.8,16.8,60.8,16.9,60.8,17z"/>
		<path id="XMLID_5144_" class="st25" d="M61.8,17.5c-0.3,0.8-1,1.2-1.6,1.3h0c-0.3,0-0.5-0.1-0.7-0.2c-0.2-0.1-0.5-0.4-0.6-0.6
			c-0.5-0.7-0.6-1.7-0.3-2.6c0.1-0.2,0.2-0.3,0.3-0.5c0,0,0,0,0,0c0.4-0.5,0.9-0.8,1.4-0.8h0c0.3,0,0.5,0.1,0.7,0.2
			C61.9,14.9,62.3,16.3,61.8,17.5z"/>
		<path id="XMLID_5143_" class="st23" d="M60.8,17c0,0.2,0,0.3-0.2,0.5c-0.1,0.1-0.2,0.2-0.3,0.2c0,0-0.1,0-0.1,0l0,0.3h-0.3l0-0.3
			c-0.1,0-0.2,0-0.2-0.1c-0.1-0.1-0.2-0.1-0.2-0.3c-0.1-0.1-0.1-0.2-0.1-0.4l0.4,0c0,0.2,0.1,0.3,0.1,0.3c0.1,0,0.1,0.1,0.2,0.1
			c0.1,0,0.2,0,0.2-0.1c0,0,0-0.1,0-0.2c0-0.1-0.1-0.2-0.2-0.3c-0.1-0.1-0.2-0.2-0.4-0.3c-0.1-0.1-0.3-0.2-0.3-0.3
			c-0.1-0.1-0.1-0.2-0.1-0.4c0-0.2,0.1-0.4,0.3-0.5c0.1,0,0.2-0.1,0.3-0.1v-0.3l0.3,0l0,0.3c0.1,0,0.2,0,0.2,0.1
			c0.1,0,0.2,0.1,0.2,0.2c0.1,0.1,0.1,0.2,0.1,0.3l-0.4,0.1c0-0.1,0-0.2-0.1-0.2c0,0-0.1-0.1-0.2-0.1c-0.1,0-0.1,0-0.2,0.1
			c0,0.1-0.1,0.1-0.1,0.2c0,0.1,0.1,0.2,0.2,0.4c0,0,0.1,0.1,0.2,0.2c0.1,0.1,0.2,0.1,0.2,0.2c0.1,0.1,0.2,0.2,0.3,0.3
			c0,0,0.1,0.1,0.1,0.1C60.8,16.8,60.8,16.9,60.8,17z"/>
	</g>
	<g id="XMLID_5126_">
		<path id="XMLID_5141_" class="st22" d="M56.3,18.5c-0.3,0.7-0.8,1.1-1.4,1.2c-0.1,0-0.2,0-0.3,0h-0.4c0.1,0,0.1,0,0.2,0
			c0,0,0.1,0,0.1,0c0.6-0.1,1.1-0.6,1.4-1.2c0.5-1.1,0.1-2.5-0.9-3.1c-0.2-0.1-0.4-0.2-0.7-0.2c-0.1,0-0.1,0-0.2,0h0.4
			c0.3,0,0.6,0.1,0.9,0.2c0.1,0,0.2,0.1,0.2,0.2l0,0l0.3,0.3C56.5,16.6,56.6,17.6,56.3,18.5z"/>
		<path id="XMLID_5140_" class="st23" d="M54.7,18c0,0.1,0,0.3-0.1,0.4c-0.1,0.1-0.1,0.1-0.2,0.2c0,0-0.1,0-0.1,0l0,0.2H54l0-0.2
			c-0.1,0-0.1,0-0.2-0.1c-0.1,0-0.1-0.1-0.2-0.2c0-0.1-0.1-0.2-0.1-0.3l0.3,0c0,0.1,0.1,0.2,0.1,0.3c0,0,0.1,0.1,0.1,0.1
			c0.1,0,0.1,0,0.2-0.1c0,0,0-0.1,0-0.1c0-0.1,0-0.2-0.1-0.3c-0.1-0.1-0.2-0.1-0.3-0.3c-0.1-0.1-0.2-0.2-0.3-0.3
			c-0.1-0.1-0.1-0.2-0.1-0.3c0-0.2,0.1-0.3,0.2-0.4c0.1,0,0.1-0.1,0.2-0.1v-0.2l0.3,0l0,0.2c0.1,0,0.1,0,0.2,0.1
			c0.1,0,0.1,0.1,0.2,0.2c0,0.1,0.1,0.2,0.1,0.2l-0.3,0.1c0-0.1,0-0.2-0.1-0.2c0,0-0.1-0.1-0.1-0.1c-0.1,0-0.1,0-0.1,0.1
			c0,0,0,0.1,0,0.2c0,0.1,0,0.2,0.1,0.3c0,0,0.1,0.1,0.2,0.1c0.1,0.1,0.1,0.1,0.2,0.1c0.1,0.1,0.2,0.2,0.2,0.2c0,0,0,0.1,0.1,0.1
			C54.7,17.9,54.7,17.9,54.7,18z"/>
		<path id="XMLID_5136_" class="st24" d="M55,15.4c-0.2-0.1-0.4-0.2-0.7-0.2c-0.1,0-0.1,0-0.2,0h0c-0.7,0-1.4,0.5-1.7,1.3
			c-0.4,1-0.1,2.3,0.6,2.9l0,0c0.1,0.1,0.1,0.1,0.2,0.2c0.2,0.1,0.4,0.2,0.6,0.2c0.1,0,0.2,0,0.3,0h0c0.1,0,0.1,0,0.2,0
			c0,0,0.1,0,0.1,0c0.6-0.1,1.1-0.6,1.4-1.2C56.3,17.4,55.9,16,55,15.4z M55.5,18.4c-0.3,0.6-0.8,1-1.3,1h0c-0.3,0-0.5,0-0.8-0.2
			c-0.2-0.1-0.4-0.3-0.5-0.5c-0.4-0.6-0.5-1.4-0.2-2.1c0.1-0.1,0.1-0.3,0.2-0.4c0.3-0.4,0.7-0.7,1.2-0.7c0,0,0.1,0,0.1,0
			c0,0,0,0,0,0c0.2,0,0.4,0.1,0.6,0.2C55.6,16.3,55.9,17.4,55.5,18.4z"/>
		<path id="XMLID_5135_" class="st23" d="M54.7,18c0,0.1,0,0.3-0.1,0.4c-0.1,0.1-0.1,0.1-0.2,0.2c0,0-0.1,0-0.1,0l0,0.2H54l0-0.2
			c-0.1,0-0.1,0-0.2-0.1c-0.1,0-0.1-0.1-0.2-0.2c0-0.1-0.1-0.2-0.1-0.3l0.3,0c0,0.1,0.1,0.2,0.1,0.3c0,0,0.1,0.1,0.1,0.1
			c0.1,0,0.1,0,0.2-0.1c0,0,0-0.1,0-0.1c0-0.1,0-0.2-0.1-0.3c-0.1-0.1-0.2-0.1-0.3-0.3c-0.1-0.1-0.2-0.2-0.3-0.3
			c-0.1-0.1-0.1-0.2-0.1-0.3c0-0.2,0.1-0.3,0.2-0.4c0.1,0,0.1-0.1,0.2-0.1v-0.2l0.3,0l0,0.2c0.1,0,0.1,0,0.2,0.1
			c0.1,0,0.1,0.1,0.2,0.2c0,0.1,0.1,0.2,0.1,0.2l-0.3,0.1c0-0.1,0-0.2-0.1-0.2c0,0-0.1-0.1-0.1-0.1c-0.1,0-0.1,0-0.1,0.1
			c0,0,0,0.1,0,0.2c0,0.1,0,0.2,0.1,0.3c0,0,0.1,0.1,0.2,0.1c0.1,0.1,0.1,0.1,0.2,0.1c0.1,0.1,0.2,0.2,0.2,0.2c0,0,0,0.1,0.1,0.1
			C54.7,17.9,54.7,17.9,54.7,18z"/>
		<path id="XMLID_5131_" class="st23" d="M54.8,15.8c-0.2-0.1-0.4-0.2-0.6-0.2c-0.4,0-0.8,0.3-1.1,0.7c0,0,0,0,0,0
			c-0.1,0.1-0.1,0.2-0.2,0.4c-0.3,0.7-0.2,1.5,0.2,2.1c0.1,0.2,0.3,0.4,0.5,0.5c0.2,0.1,0.4,0.2,0.6,0.2c0.5,0,1-0.4,1.3-1
			C55.9,17.4,55.6,16.3,54.8,15.8z M54.6,18.4c-0.1,0.1-0.1,0.1-0.2,0.2c0,0-0.1,0-0.1,0l0,0.2H54l0-0.2c-0.1,0-0.1,0-0.2-0.1
			c-0.1,0-0.1-0.1-0.2-0.2c0-0.1-0.1-0.2-0.1-0.3l0.3,0c0,0.1,0.1,0.2,0.1,0.3c0,0,0.1,0.1,0.1,0.1c0.1,0,0.1,0,0.2-0.1
			c0,0,0-0.1,0-0.1c0-0.1,0-0.2-0.1-0.3c-0.1-0.1-0.2-0.1-0.3-0.3c-0.1-0.1-0.2-0.2-0.3-0.3c-0.1-0.1-0.1-0.2-0.1-0.3
			c0-0.2,0.1-0.3,0.2-0.4c0.1,0,0.1-0.1,0.2-0.1v-0.2l0.3,0l0,0.2c0.1,0,0.1,0,0.2,0.1c0.1,0,0.1,0.1,0.2,0.2c0,0.1,0.1,0.2,0.1,0.2
			l-0.3,0.1c0-0.1,0-0.2-0.1-0.2c0,0-0.1-0.1-0.1-0.1c-0.1,0-0.1,0-0.1,0.1c0,0,0,0.1,0,0.2c0,0.1,0,0.2,0.1,0.3
			c0,0,0.1,0.1,0.2,0.1c0.1,0.1,0.1,0.1,0.2,0.1c0.1,0.1,0.2,0.2,0.2,0.2c0,0,0,0.1,0.1,0.1c0,0.1,0.1,0.1,0.1,0.2
			C54.7,18.1,54.7,18.3,54.6,18.4z"/>
		<path id="XMLID_5130_" class="st22" d="M53.6,19.2c0.2,0.1,0.4,0.2,0.6,0.2c-0.3,0-0.6,0-0.8-0.2c-0.2-0.1-0.4-0.3-0.5-0.5
			c-0.4-0.6-0.5-1.4-0.2-2.1c0.1-0.1,0.1-0.3,0.2-0.4c0,0,0,0,0,0c0.3-0.5,0.8-0.7,1.3-0.7c-0.4,0-0.8,0.3-1.1,0.7c0,0,0,0,0,0
			c-0.1,0.1-0.1,0.2-0.2,0.4c-0.3,0.7-0.2,1.5,0.2,2.1C53.3,18.9,53.4,19.1,53.6,19.2z"/>
		<path id="XMLID_5129_" class="st23" d="M54.7,18c0,0.1,0,0.3-0.1,0.4c-0.1,0.1-0.1,0.1-0.2,0.2c0,0-0.1,0-0.1,0l0,0.2H54l0-0.2
			c-0.1,0-0.1,0-0.2-0.1c-0.1,0-0.1-0.1-0.2-0.2c0-0.1-0.1-0.2-0.1-0.3l0.3,0c0,0.1,0.1,0.2,0.1,0.3c0,0,0.1,0.1,0.1,0.1
			c0.1,0,0.1,0,0.2-0.1c0,0,0-0.1,0-0.1c0-0.1,0-0.2-0.1-0.3c-0.1-0.1-0.2-0.1-0.3-0.3c-0.1-0.1-0.2-0.2-0.3-0.3
			c-0.1-0.1-0.1-0.2-0.1-0.3c0-0.2,0.1-0.3,0.2-0.4c0.1,0,0.1-0.1,0.2-0.1v-0.2l0.3,0l0,0.2c0.1,0,0.1,0,0.2,0.1
			c0.1,0,0.1,0.1,0.2,0.2c0,0.1,0.1,0.2,0.1,0.2l-0.3,0.1c0-0.1,0-0.2-0.1-0.2c0,0-0.1-0.1-0.1-0.1c-0.1,0-0.1,0-0.1,0.1
			c0,0,0,0.1,0,0.2c0,0.1,0,0.2,0.1,0.3c0,0,0.1,0.1,0.2,0.1c0.1,0.1,0.1,0.1,0.2,0.1c0.1,0.1,0.2,0.2,0.2,0.2c0,0,0,0.1,0.1,0.1
			C54.7,17.9,54.7,17.9,54.7,18z"/>
		<path id="XMLID_5128_" class="st25" d="M55.5,18.4c-0.3,0.6-0.8,1-1.3,1h0c-0.2,0-0.4-0.1-0.6-0.2c-0.2-0.1-0.4-0.3-0.5-0.5
			c-0.4-0.6-0.5-1.4-0.2-2.1c0.1-0.1,0.1-0.3,0.2-0.4c0,0,0,0,0,0c0.3-0.4,0.7-0.6,1.1-0.7h0c0.2,0,0.4,0.1,0.6,0.2
			C55.6,16.3,55.9,17.4,55.5,18.4z"/>
		<path id="XMLID_5127_" class="st23" d="M54.7,18c0,0.1,0,0.3-0.1,0.4c-0.1,0.1-0.1,0.1-0.2,0.2c0,0-0.1,0-0.1,0l0,0.2H54l0-0.2
			c-0.1,0-0.1,0-0.2-0.1c-0.1,0-0.1-0.1-0.2-0.2c0-0.1-0.1-0.2-0.1-0.3l0.3,0c0,0.1,0.1,0.2,0.1,0.3c0,0,0.1,0.1,0.1,0.1
			c0.1,0,0.1,0,0.2-0.1c0,0,0-0.1,0-0.1c0-0.1,0-0.2-0.1-0.3c-0.1-0.1-0.2-0.1-0.3-0.3c-0.1-0.1-0.2-0.2-0.3-0.3
			c-0.1-0.1-0.1-0.2-0.1-0.3c0-0.2,0.1-0.3,0.2-0.4c0.1,0,0.1-0.1,0.2-0.1v-0.2l0.3,0l0,0.2c0.1,0,0.1,0,0.2,0.1
			c0.1,0,0.1,0.1,0.2,0.2c0,0.1,0.1,0.2,0.1,0.2l-0.3,0.1c0-0.1,0-0.2-0.1-0.2c0,0-0.1-0.1-0.1-0.1c-0.1,0-0.1,0-0.1,0.1
			c0,0,0,0.1,0,0.2c0,0.1,0,0.2,0.1,0.3c0,0,0.1,0.1,0.2,0.1c0.1,0.1,0.1,0.1,0.2,0.1c0.1,0.1,0.2,0.2,0.2,0.2c0,0,0,0.1,0.1,0.1
			C54.7,17.9,54.7,17.9,54.7,18z"/>
	</g>
</g>
<polygon id="XMLID_5122_" class="st26" points="79.9,40.4 79.9,43 49.8,43 40.7,51.6 39,49 48.1,40.4 "/>
<polygon id="XMLID_5121_" class="st26" points="39,40.4 39,43 36.9,43 35.2,40.4 "/>
<line id="XMLID_4906_" class="st27" x1="13.9" y1="98.8" x2="26.7" y2="98.8"/>
<line id="XMLID_4905_" class="st27" x1="5.1" y1="98.8" x2="7.7" y2="98.8"/>
<line id="XMLID_4869_" class="st27" x1="9.7" y1="98.8" x2="12.3" y2="98.8"/>
<line id="XMLID_4918_" class="st27" x1="73.8" y1="96.2" x2="86.6" y2="96.2"/>
<line id="XMLID_4917_" class="st27" x1="65" y1="96.2" x2="67.6" y2="96.2"/>
<line id="XMLID_4907_" class="st27" x1="69.6" y1="96.2" x2="72.2" y2="96.2"/>
</svg>
