<?xml version="1.0" encoding="utf-8"?>
<!-- Generator: Adobe Illustrator 19.0.0, SVG Export Plug-In . SVG Version: 6.00 Build 0)  -->
<svg version="1.1" id="Layer_1" xmlns="http://www.w3.org/2000/svg" xmlns:xlink="http://www.w3.org/1999/xlink" x="0px" y="0px"
	 viewBox="0 0 111.3 109.5" style="enable-background:new 0 0 111.3 109.5;" xml:space="preserve">
<style type="text/css">
	.st0{fill:#2EBFC8;stroke:#000000;stroke-miterlimit:10;}
	.st1{fill:#EEF2FA;stroke:#000000;stroke-miterlimit:10;}
	.st2{fill:#E41E26;stroke:#000000;stroke-miterlimit:10;}
	.st3{fill:#6B7ABB;stroke:#000000;stroke-miterlimit:10;}
	.st4{fill:#FFFFFF;stroke:#000000;stroke-miterlimit:10;}
	.st5{fill:#665C7A;stroke:#000000;stroke-miterlimit:10;}
	.st6{fill:#010101;}
	.st7{fill:#F3764C;}
	.st8{fill:#FFFFFF;}
	.st9{opacity:0.25;fill:#236287;}
	.st10{fill:none;stroke:#000000;stroke-miterlimit:10;}
	.st11{fill:#F7A224;stroke:#000000;stroke-miterlimit:10;}
</style>
<path id="XMLID_4711_" class="st0" d="M67.6,23.7V8.2c0-3.5-2.8-6.3-6.3-6.3H8.8c-3.5,0-6.3,2.8-6.3,6.3v92.7c0,3.5,2.8,6.3,6.3,6.3
	h52.5c3.5,0,6.3-2.8,6.3-6.3V71L67.6,23.7L67.6,23.7z"/>
<rect id="XMLID_4710_" x="2.8" y="15.6" class="st1" width="64.8" height="75.7"/>
<path id="XMLID_4709_" class="st2" d="M85.5,53.5c3.6-2.1,4.8-6.7,2.7-10.2c-2.1-3.6-6.7-4.8-10.2-2.7L85.5,53.5z"/>
<polygon id="XMLID_4707_" class="st3" points="54.6,74.4 61.8,86.9 54.2,91.2 47,78.8 "/>
<polygon id="XMLID_4706_" class="st4" points="54.6,74.4 44.4,56.9 69.2,25.3 94.3,68.8 "/>
<polygon id="XMLID_4705_" class="st5" points="84.1,70.2 94.3,68.8 69.2,25.3 62.8,33.4 "/>
<path id="XMLID_4704_" class="st6" d="M27.4,10.9h15.4c1.2,0,2.1-1,2.1-2.1s-1-2.1-2.1-2.1H27.4c-1.2,0-2.1,1-2.1,2.1
	S26.2,10.9,27.4,10.9z"/>
<path id="XMLID_4703_" class="st6" d="M35.1,96.8c-0.6,0-1.1,0.2-1.5,0.6c-0.4,0.4-0.6,0.9-0.6,1.5c0,0.6,0.2,1.1,0.6,1.5
	c0.4,0.4,0.9,0.6,1.5,0.6c0.6,0,1.1-0.2,1.5-0.6c0.4-0.4,0.6-0.9,0.6-1.5c0-0.6-0.2-1.1-0.6-1.5C36.2,97,35.6,96.8,35.1,96.8z"/>
<path id="XMLID_4692_" class="st6" d="M109.6,31c-0.6-1-1.9-1.4-2.9-0.8l-10.5,6.1c-1,0.6-1.4,1.9-0.8,2.9c0.4,0.7,1.1,1.1,1.9,1.1
	c0.4,0,0.7-0.1,1.1-0.3l10.5-6.1C109.9,33.3,110.2,32,109.6,31z"/>
<path id="XMLID_4691_" class="st6" d="M87.6,31.4c0.2,0,0.4,0.1,0.6,0.1c0.9,0,1.8-0.6,2.1-1.6l1.5-5.7c0.3-1.1-0.4-2.3-1.5-2.6
	c-1.1-0.3-2.3,0.4-2.6,1.5l-1.5,5.7C85.8,30,86.5,31.1,87.6,31.4z"/>
<path id="XMLID_4690_" class="st6" d="M106.6,49.6l-5.9-1.6c-1.1-0.3-2.3,0.4-2.6,1.5c-0.3,1.1,0.4,2.3,1.5,2.6l5.9,1.6
	c0.2,0,0.4,0.1,0.6,0.1c0.9,0,1.8-0.6,2.1-1.6C108.4,51.1,107.8,49.9,106.6,49.6z"/>
<path id="XMLID_4689_" class="st6" d="M43.1,26.1c0-1.2-1-2.1-2.1-2.1H11.5c-1.2,0-2.1,1-2.1,2.1c0,1.2,1,2.1,2.1,2.1H41
	C42.2,28.2,43.1,27.3,43.1,26.1z"/>
<path id="XMLID_4688_" class="st6" d="M41,38.5c0.6,0,1.1-0.2,1.5-0.6c0.4-0.4,0.6-0.9,0.6-1.5c0-0.6-0.2-1.1-0.6-1.5
	c-0.4-0.4-0.9-0.6-1.5-0.6c-0.6,0-1.1,0.2-1.5,0.6c-0.4,0.4-0.6,0.9-0.6,1.5c0,0.6,0.2,1.1,0.6,1.5C39.9,38.3,40.4,38.5,41,38.5z"/>
<path id="XMLID_4687_" class="st6" d="M34.3,36.4c0-1.2-1-2.1-2.1-2.1H11.5c-1.2,0-2.1,1-2.1,2.1s1,2.1,2.1,2.1h20.7
	C33.3,38.5,34.3,37.5,34.3,36.4z"/>
<path id="XMLID_4686_" class="st6" d="M19.7,48.8h16.2c1.2,0,2.1-1,2.1-2.1s-1-2.1-2.1-2.1H19.7c-1.2,0-2.1,1-2.1,2.1
	S18.5,48.8,19.7,48.8z"/>
<path id="XMLID_4685_" class="st6" d="M11.5,44.5c-1.2,0-2.1,1-2.1,2.1s1,2.1,2.1,2.1h0.1c1.2,0,2.1-1,2.1-2.1S12.7,44.5,11.5,44.5
	L11.5,44.5z"/>
<g id="XMLID_2134_">
	<circle id="XMLID_2191_" class="st7" cx="63.1" cy="60.1" r="7.7"/>
	<polygon id="XMLID_2190_" class="st8" points="58.4,57.5 62.8,65.4 67.2,57.8 	"/>
	<path id="XMLID_2189_" class="st9" d="M70.7,58.8c0.5,3-0.8,6.2-3.5,7.9l-4.4-1.2l4.3-7.6L70.7,58.8z"/>
</g>
<line id="XMLID_993_" class="st10" x1="2.3" y1="107.1" x2="7.6" y2="107.1"/>
<line id="XMLID_992_" class="st10" x1="69.9" y1="107.1" x2="71.8" y2="107.1"/>
<path id="XMLID_4708_" class="st11" d="M54.6,74.4l-10.6,6.1c-4.9,2.8-11.1,1.1-13.9-3.7l0,0C27.3,72,28.9,65.8,33.8,63l10.6-6.1
	L54.6,74.4z"/>
</svg>
