<?xml version="1.0" encoding="utf-8"?>
<!-- Generator: Adobe Illustrator 19.0.0, SVG Export Plug-In . SVG Version: 6.00 Build 0)  -->
<svg version="1.1" id="Layer_1" xmlns="http://www.w3.org/2000/svg" xmlns:xlink="http://www.w3.org/1999/xlink" x="0px" y="0px"
	 viewBox="0 0 100.7 94.9" style="enable-background:new 0 0 100.7 94.9;" xml:space="preserve">
<style type="text/css">
	.st0{fill:#595A5C;stroke:#000000;stroke-miterlimit:10;}
	.st1{fill:#EC2227;stroke:#000000;stroke-miterlimit:10;}
	.st2{fill:#A8AAAD;stroke:#000000;stroke-miterlimit:10;}
	.st3{fill:#818285;stroke:#000000;stroke-miterlimit:10;}
	.st4{fill:#D52027;}
	.st5{fill:#010101;}
	.st6{fill:#FFDF82;stroke:#000000;stroke-miterlimit:10;}
	.st7{fill:#DCE579;stroke:#000000;stroke-miterlimit:10;}
	.st8{fill:#FFFFFF;}
	.st9{fill:#A1A9D5;}
	.st10{fill:#F58A68;stroke:#000000;stroke-miterlimit:10;}
	.st11{fill:#D0D8DC;stroke:#000000;stroke-miterlimit:10;}
</style>
<g id="XMLID_915_">
	<path id="XMLID_4650_" class="st0" d="M34.8,86.2c-2.6,0-4.7,2.1-4.7,4.7v2.4h33.2V91c0-2.6-2.1-4.7-4.7-4.7H34.8z"/>
	<path id="XMLID_4641_" class="st1" d="M79.9,24.6H13.5c-2.6,0-4.7,2.1-4.7,4.7v38h75.9v-38C84.6,26.7,82.5,24.6,79.9,24.6z
		 M39.6,55.4v-19l19,9.5L39.6,55.4z"/>
	<path id="XMLID_4640_" class="st2" d="M8.7,72c0,2.6,2.1,4.7,4.7,4.7h66.4c2.6,0,4.7-2.1,4.7-4.7v-4.7H8.7V72z"/>
	<path id="XMLID_4639_" class="st3" d="M39.6,76.8h14.2v9.5H39.6V76.8z"/>
	<path id="XMLID_4637_" class="st4" d="M9.5,39.9v26.7h40.3C27.5,66.6,9.5,54.6,9.5,39.9z"/>
	<path id="XMLID_2052_" class="st5" d="M65.1,92.2h2.6v1.4h-2.6V92.2z"/>
	<path id="XMLID_923_" class="st5" d="M69.5,92.2h7.8v1.4h-7.8V92.2z"/>
	<path id="XMLID_922_" class="st6" d="M12.4,49.9h3.1c0.6,0,1.1-0.3,1.4-0.7l2.2-2.9c0.2-0.3,0.4-0.7,0.4-1.1v-5.3
		c2.6,0,4.7,2.1,4.7,4.7v4.7h7.6c1,0,1.8,0.8,1.8,1.8s-0.8,1.8-1.8,1.8v1.8c0,1-0.8,1.8-1.8,1.8v1.8c0,1-0.8,1.8-1.8,1.8v1.8
		c0,1-0.8,1.8-1.8,1.8h-6.6l-3.5-1.8h-4V49.9z"/>
	<path id="XMLID_921_" class="st7" d="M2.5,48.1h10v15.3h-10V48.1z"/>
	<path id="XMLID_920_" class="st8" d="M10.1,59.8c0,0.6-0.5,1.2-1.2,1.2s-1.2-0.5-1.2-1.2c0-0.6,0.5-1.2,1.2-1.2
		S10.1,59.2,10.1,59.8z"/>
	<path id="XMLID_917_" class="st5" d="M10.7,59.8c0-1-0.8-1.8-1.8-1.8s-1.8,0.8-1.8,1.8c0,1,0.8,1.8,1.8,1.8S10.7,60.8,10.7,59.8z
		 M8.3,59.8c0-0.3,0.3-0.6,0.6-0.6s0.6,0.3,0.6,0.6c0,0.3-0.3,0.6-0.6,0.6S8.3,60.2,8.3,59.8z"/>
	<g id="XMLID_916_">
		<path id="XMLID_4733_" class="st9" d="M12.4,28.6h68.1v5.2H12.4V28.6z"/>
		<path id="XMLID_4729_" class="st8" d="M33.3,30.5h44v1.3h-44V30.5z"/>
		<path id="XMLID_4728_" class="st8" d="M15.7,30.5h2.2v1.3h-2.2V30.5z"/>
		<path id="XMLID_4727_" class="st8" d="M20.1,30.5h2.2v1.3h-2.2V30.5z"/>
		<path id="XMLID_4726_" class="st8" d="M24.5,30.5h2.2v1.3h-2.2V30.5z"/>
	</g>
	<path id="XMLID_5268_" class="st10" d="M77.4,37.4v-5.8h-6.8l5.8-5.8V18h22.3v19.4H77.4z"/>
	<path id="XMLID_5257_" class="st8" d="M87.8,24.3c-1.3-1.3-3.4-1.3-4.7,0c-1.3,1.3-1.3,3.4,0,4.7l4.7,4.7l4.7-4.7
		c1.3-1.3,1.3-3.4,0-4.7C91.3,23,89.1,23,87.8,24.3z"/>
	<path id="XMLID_5264_" class="st11" d="M34.1,25.9h-8.6L20.6,32l-4.9-6.1H7.2V1.4h27V25.9z"/>
	<path id="XMLID_5256_" class="st8" d="M10.8,7.5h19.6v2H10.8V7.5z"/>
	<path id="XMLID_5254_" class="st8" d="M10.8,13.4h19.6v2H10.8V13.4z"/>
	<path id="XMLID_5253_" class="st8" d="M10.8,19.1h12.3v2H10.8V19.1z"/>
</g>
</svg>
