<?xml version="1.0" encoding="utf-8"?>
<!-- Generator: Adobe Illustrator 19.0.0, SVG Export Plug-In . SVG Version: 6.00 Build 0)  -->
<svg version="1.1" id="Layer_1" xmlns="http://www.w3.org/2000/svg" xmlns:xlink="http://www.w3.org/1999/xlink" x="0px" y="0px"
	 viewBox="0 0 91 121" style="enable-background:new 0 0 91 121;" xml:space="preserve">
<style type="text/css">
	.st0{fill:#ABB2BB;stroke:#000000;stroke-miterlimit:10;}
	.st1{fill:#FFC82C;stroke:#000000;stroke-miterlimit:10;}
	.st2{fill:#FFC82C;}
	.st3{fill:#EDF5F7;stroke:#000000;stroke-miterlimit:10;}
	.st4{fill:#FCDE7F;stroke:#000000;stroke-miterlimit:10;}
	.st5{fill:none;stroke:#000000;stroke-miterlimit:10;}
	.st6{fill:#FCDE7F;stroke:#000000;stroke-width:2;stroke-miterlimit:10;}
</style>
<path id="XMLID_4547_" class="st0" d="M87.4,89.8H4.5c-1.6,0-2.6-1.7-1.9-3.1l5.2-10.1h76.2l5.2,10.1C90,88.1,89,89.8,87.4,89.8z"/>
<path id="XMLID_4546_" class="st1" d="M78.3,59.9h-0.8v16.7h6.5V54.2C84.1,57.3,81.5,59.9,78.3,59.9z"/>
<path id="XMLID_4545_" class="st1" d="M7.8,54.2v22.4h6.5V59.9h-0.8C10.4,59.9,7.8,57.3,7.8,54.2z"/>
<path id="XMLID_4544_" class="st2" d="M78.6,89.8H65.6l-19.7,11.4L26.3,89.8H13.3l26.2,15.1l-24.8,14.3h12.9l18.3-10.6l18.3,10.6
	h12.9l-24.8-14.3L78.6,89.8z"/>
<path id="XMLID_4543_" class="st0" d="M80.9,31.3H18.8l0.3-0.9c0,0,0,0,0,0c0-0.1,0.1-0.2,0.1-0.3c0,0,0,0,0-0.1c0-0.1,0-0.1,0-0.2
	c0,0,0,0,0-0.1c0-0.1,0-0.1,0-0.2c0,0,0,0,0,0c0-0.1,0-0.2,0-0.2c0,0,0,0,0,0c0-0.1,0-0.2,0-0.3c0,0,0,0,0,0c0-0.3,0-0.6-0.1-0.8
	c0.2,0,0.3,0,0.4,0c0.1,0,0.2,0,0.3,0l59.4-15.4c1.3-0.3,2.1-1.7,1.7-3l-1.3-5.1c-0.4-1.6-2.1-2.6-3.7-2.2L11.4,19.3
	c-3.6,0.9-5.9,4.4-5.5,8.1L7.8,42v12.1c0,3.2,2.6,5.7,5.7,5.7h64.8c3.2,0,5.7-2.6,5.7-5.7V34.5C84.1,32.7,82.6,31.3,80.9,31.3z"/>
<g id="XMLID_4534_">
	<path id="XMLID_4542_" class="st3" d="M18.8,31.3L15.4,42h6.9l4.1-10.7H18.8z"/>
	<path id="XMLID_4541_" class="st3" d="M21,16.8l-7.9,2.1l5.3,7.5c0.4,0.6,0.7,1.2,0.8,1.9c0.2,0,0.3,0,0.4,0s0.2,0,0.3,0l7.8-2
		L21,16.8z"/>
	<path id="XMLID_4540_" class="st3" d="M62.7,42h8.2L75,31.3h-8.2L62.7,42z"/>
	<path id="XMLID_4539_" class="st3" d="M46.5,42h8.2l4.1-10.7h-8.2L46.5,42z"/>
	<path id="XMLID_4538_" class="st3" d="M30.3,42h8.2l4.1-10.7h-8.2L30.3,42z"/>
	<path id="XMLID_4537_" class="st3" d="M43.4,22.1l-7.9,2.1l-6.7-9.4l7.9-2.1L43.4,22.1z"/>
	<path id="XMLID_4536_" class="st3" d="M59.1,18l-7.9,2.1l-6.7-9.4l7.9-2.1L59.1,18z"/>
	<path id="XMLID_4535_" class="st3" d="M74.8,13.9L66.9,16l-6.7-9.4l7.9-2.1L74.8,13.9z"/>
</g>
<line id="XMLID_4494_" class="st4" x1="7.8" y1="42" x2="84.2" y2="42.3"/>
<line id="XMLID_4495_" class="st4" x1="9.6" y1="31.2" x2="11.4" y2="31.3"/>
<line id="XMLID_4496_" class="st5" x1="4.1" y1="119" x2="6" y2="119"/>
<line id="XMLID_4506_" class="st6" x1="11.4" y1="46.2" x2="13.4" y2="46.2"/>
<line id="XMLID_4507_" class="st6" x1="15.3" y1="46.2" x2="17.2" y2="46.2"/>
<line id="XMLID_4508_" class="st6" x1="18.9" y1="46.2" x2="20.8" y2="46.2"/>
<line id="XMLID_4509_" class="st6" x1="22.5" y1="46.2" x2="24.4" y2="46.2"/>
<line id="XMLID_4510_" class="st6" x1="26.1" y1="46.2" x2="28.1" y2="46.2"/>
<line id="XMLID_4511_" class="st6" x1="29.6" y1="46.2" x2="31.5" y2="46.2"/>
<line id="XMLID_4512_" class="st6" x1="33.1" y1="46.2" x2="35.1" y2="46.2"/>
<line id="XMLID_4515_" class="st6" x1="36.9" y1="46.2" x2="38.8" y2="46.2"/>
<line id="XMLID_4516_" class="st6" x1="40.6" y1="46.2" x2="42.5" y2="46.2"/>
<line id="XMLID_4517_" class="st6" x1="44.5" y1="46.2" x2="46.5" y2="46.2"/>
<line id="XMLID_4513_" class="st6" x1="48.2" y1="46.2" x2="50.1" y2="46.2"/>
<line id="XMLID_4514_" class="st6" x1="51.8" y1="46.2" x2="53.7" y2="46.2"/>
<line id="XMLID_4518_" class="st6" x1="55.5" y1="46.2" x2="57.4" y2="46.2"/>
<line id="XMLID_4519_" class="st6" x1="59.3" y1="46.2" x2="61.2" y2="46.2"/>
<line id="XMLID_4525_" class="st6" x1="63.2" y1="46.2" x2="65.1" y2="46.2"/>
<line id="XMLID_4524_" class="st6" x1="66.8" y1="46.2" x2="68.7" y2="46.2"/>
<line id="XMLID_4523_" class="st6" x1="70.5" y1="46.2" x2="72.4" y2="46.2"/>
<line id="XMLID_4522_" class="st6" x1="74.3" y1="46.2" x2="76.3" y2="46.2"/>
<line id="XMLID_4521_" class="st6" x1="77.9" y1="46.2" x2="79.8" y2="46.2"/>
<line id="XMLID_4501_" class="st5" x1="84.7" y1="119.3" x2="86.6" y2="119.3"/>
<polyline id="XMLID_897_" class="st5" points="8.9,119 14.7,119.3 65.6,89.8 78.6,89.8 27.6,119.3 "/>
<polyline id="XMLID_4498_" class="st5" points="36.1,103 13.3,89.8 26.3,89.8 42.5,99.2 "/>
<line id="XMLID_4499_" class="st5" x1="50.9" y1="111.6" x2="64.3" y2="119.3"/>
<polyline id="XMLID_4497_" class="st5" points="55.8,106.9 77.2,119.3 82.5,119.3 "/>
<line id="XMLID_4504_" class="st5" x1="67.4" y1="23.6" x2="71.1" y2="23.6"/>
<line id="XMLID_4505_" class="st5" x1="69.2" y1="21.7" x2="69.2" y2="25.4"/>
<line id="XMLID_4526_" class="st5" x1="25.8" y1="6.7" x2="29.5" y2="6.7"/>
<line id="XMLID_4520_" class="st5" x1="27.7" y1="4.8" x2="27.7" y2="8.5"/>
</svg>
