<?xml version="1.0" encoding="utf-8"?>
<!-- Generator: Adobe Illustrator 19.0.0, SVG Export Plug-In . SVG Version: 6.00 Build 0)  -->
<svg version="1.1" id="Layer_1" xmlns="http://www.w3.org/2000/svg" xmlns:xlink="http://www.w3.org/1999/xlink" x="0px" y="0px"
	 viewBox="0 0 98.9 91.5" style="enable-background:new 0 0 98.9 91.5;" xml:space="preserve">
<style type="text/css">
	.st0{fill:#FFCE04;stroke:#131831;stroke-miterlimit:10;}
	.st1{fill:#E7E9ED;stroke:#000000;stroke-miterlimit:10;}
	.st2{fill:#EF443B;}
	.st3{fill:#131831;stroke:#131831;stroke-miterlimit:10;}
	.st4{fill:#131831;stroke:#000000;stroke-miterlimit:10;}
	.st5{fill:#2EBFC8;stroke:#000000;stroke-miterlimit:10;}
	.st6{fill:#67C8D0;stroke:#131831;stroke-miterlimit:10;}
	.st7{fill:#C2C8CE;stroke:#000000;stroke-miterlimit:10;}
	.st8{fill:none;stroke:#000000;stroke-miterlimit:10;}
	.st9{fill:#FCDE7F;stroke:#000000;stroke-miterlimit:10;}
</style>
<path id="XMLID_4633_" class="st0" d="M88.4,79.4h-27v3h27c0.8,0,1.5,0.7,1.5,1.5v6h3v-6C92.9,81.4,90.9,79.4,88.4,79.4z"/>
<path id="XMLID_4632_" class="st1" d="M4.5,34.4h66v28.5c0,1.7-1.3,3-3,3h-60c-1.7,0-3-1.3-3-3V34.4z"/>
<path id="XMLID_4631_" class="st2" d="M13.4,40.4h48v10.5h-48V40.4z"/>
<path id="XMLID_4630_" class="st0" d="M70.4,25.4h-9l9,8.8V25.4z"/>
<path id="XMLID_4629_" class="st3" d="M4.5,28.4v5.9h12.1l-9.1-8.9C5.8,25.4,4.5,26.8,4.5,28.4z"/>
<path id="XMLID_4628_" class="st0" d="M7.4,25.4l9.1,8.9H30l-9.1-8.9H7.4z"/>
<path id="XMLID_4627_" class="st0" d="M34.4,25.4l9.1,8.9H57l-9.1-8.9H34.4z"/>
<path id="XMLID_4626_" class="st4" d="M70.4,34.2l-9-8.8H47.9l9.1,8.9h13.4V34.2z"/>
<path id="XMLID_4625_" class="st3" d="M20.9,25.4l9.1,8.9h13.5l-9.1-8.9H20.9z"/>
<path id="XMLID_4624_" class="st5" d="M79.4,64.4c0,9.9-8.1,18-18,18s-18-8.1-18-18s8.1-18,18-18S79.4,54.5,79.4,64.4z"/>
<path id="XMLID_4623_" class="st0" d="M64.4,53.9c0,1.7-1.3,3-3,3s-3-1.3-3-3c0-1.7,1.3-3,3-3S64.4,52.3,64.4,53.9z"/>
<path id="XMLID_4622_" class="st0" d="M55.3,59.2c0,1.7-1.3,3-3,3s-3-1.3-3-3c0-1.7,1.3-3,3-3S55.3,57.5,55.3,59.2z"/>
<path id="XMLID_4621_" class="st0" d="M55.3,69.7c0,1.7-1.3,3-3,3s-3-1.3-3-3c0-1.7,1.3-3,3-3S55.3,68,55.3,69.7z"/>
<path id="XMLID_4620_" class="st0" d="M64.4,74.9c0,1.7-1.3,3-3,3s-3-1.3-3-3c0-1.7,1.3-3,3-3S64.4,73.2,64.4,74.9z"/>
<path id="XMLID_4619_" class="st0" d="M73.5,69.7c0,1.7-1.3,3-3,3c-1.7,0-3-1.3-3-3c0-1.7,1.3-3,3-3C72.2,66.7,73.5,68,73.5,69.7z"
	/>
<path id="XMLID_4618_" class="st0" d="M73.5,59.2c0,1.7-1.3,3-3,3c-1.7,0-3-1.3-3-3c0-1.7,1.3-3,3-3C72.2,56.2,73.5,57.5,73.5,59.2z
	"/>
<path id="XMLID_4617_" class="st0" d="M13.8,14.4l-6.4,11l13.2-3.5l6-10.9L13.8,14.4z"/>
<path id="XMLID_4615_" class="st3" d="M39.7,7.5l-13,3.5l-6,10.9l13-3.5L39.7,7.5z"/>
<path id="XMLID_4614_" class="st0" d="M52.9,3.9L39.7,7.5l-6,10.9l13.1-3.5L52.9,3.9z"/>
<path id="XMLID_4613_" class="st3" d="M63.1,1.2L52.9,3.9l-6.1,11l13-3.5l5.5-9.9C64.7,1.1,63.8,1,63.1,1.2z"/>
<path id="XMLID_4612_" class="st0" d="M66.7,3.3c-0.2-0.8-0.7-1.4-1.4-1.8l-5.5,9.9l8.5-2.3L66.7,3.3z"/>
<path id="XMLID_4611_" class="st3" d="M8,15.9c-1.6,0.4-2.5,2.1-2.1,3.7l1.6,5.8l6.4-11L8,15.9z"/>
<path id="XMLID_4610_" class="st6" d="M62.9,82.3c-0.5,0-1,0.1-1.5,0.1c-9.9,0-18-8.1-18-18s8.1-18,18-18c0.5,0,1,0,1.5,0.1
	c-9.3,0.8-16.5,8.6-16.5,17.9C46.4,73.8,53.6,81.6,62.9,82.3z"/>
<path id="XMLID_4609_" class="st7" d="M10.4,65.9h-3c-1.7,0-3-1.3-3-3V34.4h3v28.5C7.5,64.6,8.8,65.9,10.4,65.9z"/>
<path id="XMLID_4608_" class="st3" d="M8.3,26.3c-0.6,0.6-0.9,1.3-0.9,2.1v6h-3v-6c0-1.7,1.3-3,3-3L8.3,26.3z"/>
<line id="XMLID_4530_" class="st8" x1="1.4" y1="65.9" x2="3.7" y2="65.9"/>
<line id="XMLID_4571_" class="st9" x1="10.5" y1="63.5" x2="12.8" y2="63.5"/>
<line id="XMLID_4572_" class="st9" x1="14.8" y1="63.5" x2="43.5" y2="63.5"/>
<line id="XMLID_4548_" class="st9" x1="14.8" y1="49.5" x2="17" y2="49.5"/>
<line id="XMLID_4549_" class="st9" x1="18.7" y1="49.5" x2="21" y2="49.5"/>
<line id="XMLID_4550_" class="st9" x1="22.7" y1="49.5" x2="25" y2="49.5"/>
<line id="XMLID_4552_" class="st9" x1="26.7" y1="49.5" x2="28.9" y2="49.5"/>
<line id="XMLID_4554_" class="st9" x1="30.6" y1="49.5" x2="32.9" y2="49.5"/>
<line id="XMLID_4555_" class="st9" x1="34.6" y1="49.5" x2="36.8" y2="49.5"/>
<line id="XMLID_4556_" class="st9" x1="38.5" y1="49.5" x2="40.8" y2="49.5"/>
<line id="XMLID_4557_" class="st9" x1="42.5" y1="49.5" x2="44.8" y2="49.5"/>
<line id="XMLID_4558_" class="st9" x1="46.5" y1="49.5" x2="48.7" y2="49.5"/>
<line id="XMLID_4567_" class="st9" x1="14.8" y1="41.7" x2="17" y2="41.7"/>
<line id="XMLID_4566_" class="st9" x1="18.7" y1="41.7" x2="21" y2="41.7"/>
<line id="XMLID_4565_" class="st9" x1="22.7" y1="41.7" x2="25" y2="41.7"/>
<line id="XMLID_4564_" class="st9" x1="26.7" y1="41.7" x2="28.9" y2="41.7"/>
<line id="XMLID_4563_" class="st9" x1="30.6" y1="41.7" x2="32.9" y2="41.7"/>
<line id="XMLID_4562_" class="st9" x1="34.6" y1="41.7" x2="36.8" y2="41.7"/>
<line id="XMLID_4561_" class="st9" x1="38.5" y1="41.7" x2="40.8" y2="41.7"/>
<line id="XMLID_4560_" class="st9" x1="42.5" y1="41.7" x2="44.8" y2="41.7"/>
<line id="XMLID_4559_" class="st9" x1="46.5" y1="41.7" x2="48.7" y2="41.7"/>
<line id="XMLID_4568_" class="st9" x1="50.4" y1="41.7" x2="52.7" y2="41.7"/>
<line id="XMLID_4569_" class="st9" x1="54" y1="41.7" x2="56.2" y2="41.7"/>
<line id="XMLID_4570_" class="st9" x1="57.7" y1="41.7" x2="60" y2="41.7"/>
<line id="XMLID_4531_" class="st8" x1="80.7" y1="65.9" x2="83" y2="65.9"/>
<line id="XMLID_4532_" class="st8" x1="94.8" y1="89.9" x2="97" y2="89.9"/>
<line id="XMLID_4533_" class="st9" x1="87.8" y1="89.9" x2="90" y2="89.9"/>
</svg>
