<?xml version="1.0" encoding="utf-8"?>
<!-- Generator: Adobe Illustrator 19.0.0, SVG Export Plug-In . SVG Version: 6.00 Build 0)  -->
<svg version="1.1" id="Layer_1" xmlns="http://www.w3.org/2000/svg" xmlns:xlink="http://www.w3.org/1999/xlink" x="0px" y="0px"
	 viewBox="0 0 109.1 100" style="enable-background:new 0 0 109.1 100;" xml:space="preserve">
<style type="text/css">
	.st0{fill:none;stroke:#000000;stroke-miterlimit:10;}
	.st1{fill:#FFFFFF;}
	.st2{clip-path:url(#XMLID_158_);fill:#8BD4F5;}
	.st3{fill:#2F465D;}
	.st4{fill:#EF364B;stroke:#000000;stroke-miterlimit:10;}
	.st5{fill:#8ED8F8;}
	.st6{fill:#2C9345;}
	.st7{fill:#3CBFEF;}
	.st8{fill:#FEDA46;stroke:#000000;stroke-miterlimit:10;}
	.st9{fill:#326C89;}
</style>
<line id="XMLID_4998_" class="st0" x1="8.1" y1="76" x2="33.3" y2="76"/>
<line id="XMLID_5008_" class="st0" x1="0.7" y1="76" x2="4.9" y2="76"/>
<line id="XMLID_5010_" class="st0" x1="103.7" y1="71.6" x2="107.9" y2="71.6"/>
<path id="XMLID_2501_" class="st1" d="M98.5,71.9H16c-1.6,0-2.9-1.3-2.9-2.9V4.9c0-1.6,1.3-2.9,2.9-2.9h82.6c1.6,0,2.9,1.3,2.9,2.9
	V69C101.4,70.6,100.1,71.9,98.5,71.9z"/>
<g id="XMLID_2500_">
	<defs>
		<path id="XMLID_903_" d="M98.4,71.6H16c-1.6,0-2.9-1.3-2.9-2.9V5.1c0-1.6,1.3-2.9,2.9-2.9h82.5c1.6,0,2.9,1.3,2.9,2.9v63.6
			C101.3,70.3,100,71.6,98.4,71.6z"/>
	</defs>
	<clipPath id="XMLID_158_">
		<use xlink:href="#XMLID_903_"  style="overflow:visible;"/>
	</clipPath>
	<rect id="XMLID_2498_" x="10.5" y="2.2" class="st2" width="96" height="11.4"/>
</g>
<path id="XMLID_4989_" class="st0" d="M98.5,71.9H16c-1.6,0-2.9-1.3-2.9-2.9V4.9c0-1.6,1.3-2.9,2.9-2.9h82.6c1.6,0,2.9,1.3,2.9,2.9
	V69C101.4,70.6,100.1,71.9,98.5,71.9z"/>
<rect id="XMLID_2484_" x="30.7" y="6.5" class="st3" width="67" height="3.1"/>
<ellipse id="XMLID_4988_" class="st3" cx="25.3" cy="7.7" rx="1.8" ry="1.9"/>
<ellipse id="XMLID_4991_" class="st3" cx="19.6" cy="7.7" rx="1.8" ry="1.9"/>
<path id="XMLID_4995_" class="st4" d="M47,32l-0.8-4.1l-3.2,0c-0.3-0.7-0.7-1.3-1.1-1.9l1.6-2.7l-3.2-2.7l-2.4,2
	c-0.7-0.3-1.4-0.6-2.1-0.8l-0.5-3.1l-4.2,0l-0.5,3.1c-0.7,0.2-1.4,0.4-2.1,0.8l-2.4-2L26,20.8l-3.1,2.6l1.6,2.7
	c-0.4,0.6-0.8,1.3-1.1,2l-3.1,0l-0.7,4.2l2.9,1c0.1,0.7,0.2,1.5,0.4,2.2l-2.4,2l2.1,3.6l3-1.1c0.5,0.5,1.1,1,1.7,1.4l-0.5,3.1l4,1.4
	l1.6-2.8c0.7,0.1,1.5,0.1,2.2,0l1.6,2.8l3.9-1.5l-0.3-1.6l-0.3-1.5c0.3-0.2,0.6-0.4,0.8-0.6c0.3-0.2,0.6-0.5,0.8-0.8l3,1.1l2.1-3.7
	l-2.5-2c0.2-0.7,0.3-1.4,0.4-2.1L47,32z M37.6,37.5c-0.3,0.2-0.5,0.4-0.8,0.6c-2.8,1.7-6.5,1.2-8.6-1.4c-2.4-2.8-2.1-7.1,0.8-9.5
	c0.2-0.2,0.5-0.4,0.8-0.6c2.8-1.8,6.5-1.3,8.7,1.3C40.8,30.9,40.5,35.1,37.6,37.5z"/>
<g id="XMLID_5006_">
	<circle id="XMLID_5005_" class="st5" cx="66.8" cy="69.1" r="14.5"/>
	<path id="XMLID_5013_" class="st6" d="M68.5,54.7l-0.6,1.9c-0.1,0.5-0.5,0.8-1,0.9l-1.5,0.4c-0.1,0-0.2,0.1-0.4,0.1h-2.3
		c-0.2,0-0.4,0.2-0.5,0.4l-0.3,1.9l-1.4,0.1c-0.2,0-0.4,0.2-0.4,0.4l0,1.2c0,0.3,0.2,0.5,0.5,0.5l1-0.1c0.2,0,0.5-0.1,0.6-0.3
		l0.9-1.2l1.9-0.1c0.4,0,0.7,0.4,0.5,0.8c-0.3,0.8-0.3,0.9-0.3,1c0,0.3,0.2,0.5,0.5,0.5c0.2,0,0.4-0.2,0.5-0.4c0-0.1,0.2-0.5,0.4-1
		c0.1-0.2,0.3-0.2,0.5,0l0.1,0.2c0.2,0.3,0.6,0.5,1,0.4L69,62c0.2-0.1,0.4-0.2,0.5-0.5l0.2-0.4c0.1-0.3,0.4-0.5,0.7-0.6l0.5-0.1
		c0.4-0.1,0.8,0.1,0.8,0.5c0.1,0.4-0.2,0.7-0.6,0.8l-1.3,0c-0.3,0-0.5,0.2-0.5,0.5l0,0.1c0,0.1,0.1,0.2,0.1,0.2l0.7,0.4
		c0.3,0.1,0.4,0.5,0.2,0.8l0,0C70.3,63.9,70.2,64,70,64h-4c-0.1,0-0.2,0-0.3-0.1l-3.3-1.3c-0.2-0.1-0.5,0-0.7,0.1l-3.1,2.9
		c-0.3,0.2-0.4,0.6-0.3,0.9l0.6,2.6c0.1,0.4,0.4,0.7,0.9,0.7l3.5,0.2c0.7,0,1.3,0.6,1.3,1.3l0.3,2.9c0,0.2,0.1,0.4,0.2,0.6
		c0.3,0.6,1,2,1.4,2.5c0.5,0.6,1.7,0.7,2.1,0.3l2.9-2.4c0.2-0.2,0.4-0.5,0.4-0.8l0.3-2.3l2.3-2.5c0.2-0.2,0.1-0.6-0.2-0.7l0,0
		c-0.2,0.1-0.4,0.2-0.6,0.2c0,0-0.1,0-0.1,0c-0.4,0-0.8-0.2-1-0.6l-1.7-2.8c-0.1-0.2-0.1-0.5,0.1-0.6c0.2-0.1,0.5-0.1,0.6,0.1
		l1.7,2.8c0.1,0.1,0.2,0.1,0.3,0.1c0,0,0.1,0,0.1,0l2.4-1.3c0.2-0.1,0.3-0.5,0.1-0.7l0,0c-0.1-0.1-0.3-0.2-0.4-0.2l-0.5,0.1
		c-0.1,0-0.3,0-0.4-0.1l-1.5-1.3c-0.2-0.2-0.2-0.5,0-0.7c0.2-0.2,0.5-0.2,0.7,0l1.3,1.2l0.8-0.1c0.2,0,0.3,0.1,0.4,0.2l0.2,0.2
		l0.8-0.1c0.4,0,0.8,0.1,0.9,0.5l1.6,2.9c0.1,0.2,0.3,0.4,0.5,0.4l0.6,0.2c0-0.1,0-0.2,0-0.3C81.4,61.7,75.7,55.6,68.5,54.7z
		 M74.6,62.7c-0.1,0.1-0.2,0.1-0.3,0.1c-0.2,0-0.3-0.1-0.4-0.2l-1-1.4c-0.1-0.2-0.1-0.5,0.1-0.7c0.2-0.1,0.5-0.1,0.7,0.1l1,1.4
		C74.9,62.3,74.8,62.6,74.6,62.7z"/>
	<path id="XMLID_5002_" class="st7" d="M71.6,78.9c-8,0-14.5-6.5-14.5-14.5c0-2.8,0.8-5.4,2.2-7.6c-4.1,2.6-6.9,7.1-6.9,12.4
		c0,8,6.5,14.5,14.5,14.5c5.2,0,9.8-2.8,12.4-6.9C77,78.1,74.4,78.9,71.6,78.9z"/>
	<g id="XMLID_5009_">
		<path id="XMLID_5001_" class="st6" d="M73.2,76.8c-0.1,0-0.2,0-0.3-0.1c-0.2-0.2-0.2-0.5-0.1-0.7l1.2-1.5c0.2-0.2,0.5-0.2,0.7-0.1
			c0.2,0.2,0.2,0.5,0.1,0.7l-1.2,1.5C73.4,76.8,73.3,76.8,73.2,76.8z"/>
		<path id="XMLID_5000_" class="st6" d="M62.8,55.2l-0.4,1.2c-0.1,0.2,0,0.5,0.3,0.6c0,0,0.1,0,0.1,0c0.2,0,0.4-0.1,0.4-0.3l0.6-1.8
			C63.5,55,63.2,55.1,62.8,55.2z"/>
	</g>
	<path id="XMLID_4999_" class="st6" d="M54.7,77.2l0.4-3.7c0-0.3-0.1-0.6-0.3-0.8l-2.5-2.3C52.6,72.9,53.4,75.2,54.7,77.2z"/>
	<path id="XMLID_4990_" class="st6" d="M66.8,54.6c-0.5,0-1,0-1.6,0.1l0,1.1c-0.1,0.4,0.1,0.8,0.4,0.9c0.1,0,0.1,0,0.2,0
		c0.3,0,0.6-0.2,0.7-0.5l0.5-1.6C67,54.6,66.9,54.6,66.8,54.6z"/>
</g>
<path id="XMLID_4992_" class="st8" d="M96.1,71.1l-0.8-8.9l-6.7-0.5c-0.5-1.4-1.2-2.9-2-4.2l3.9-5.5l-6.4-6.3l-5.4,3.9
	c-1.4-0.8-2.8-1.5-4.3-2l-0.5-6.6L64.8,40l-1.7,6.4c-1.6,0.3-3.1,0.7-4.6,1.3L53.9,43l-0.2,0.1l-7.1,5l2.8,6c-1.1,1.2-2,2.6-2.7,4
	l-6.6-0.6l-2.3,8.7l6.1,2.8c0,1.6,0.1,3.2,0.4,4.7l-5.5,3.8l3.8,8.1l6.5-1.8c1,1.2,2.1,2.3,3.3,3.3l-1.8,6.5l8.1,3.8l3.8-5.6
	c1.5,0.3,3.1,0.4,4.6,0.4l2.8,6.1l8.7-2.3l-0.3-3.5l-0.3-3.3c0.6-0.4,1.3-0.8,1.9-1.2c0.7-0.5,1.3-0.9,1.9-1.5l6.1,2.9l5.1-7.4
	l-4.9-4.8c0.5-1.4,0.9-2.9,1.2-4.5L96.1,71.1z M75.1,80.9c-0.6,0.4-1.2,0.8-1.9,1.1c-6.2,3.1-13.9,1.3-18.1-4.6
	c-4.5-6.5-3-15.4,3.5-20c0.6-0.4,1.2-0.7,1.8-1c6.2-3.2,14-1.4,18.2,4.5C83.1,67.4,81.5,76.3,75.1,80.9z"/>
<g id="XMLID_5014_">
	<rect id="XMLID_5015_" x="64.2" y="19.2" class="st9" width="34.3" height="1.2"/>
</g>
<g id="XMLID_5011_">
	<rect id="XMLID_5012_" x="64.2" y="23.3" class="st9" width="34.3" height="1.2"/>
</g>
<g id="XMLID_5016_">
	<rect id="XMLID_5017_" x="64.2" y="27.1" class="st9" width="34.3" height="1.2"/>
</g>
<g id="XMLID_5021_">
	<rect id="XMLID_5022_" x="64.2" y="31" class="st9" width="34.3" height="1.2"/>
</g>
</svg>
