<?xml version="1.0" encoding="utf-8"?>
<!-- Generator: Adobe Illustrator 19.0.0, SVG Export Plug-In . SVG Version: 6.00 Build 0)  -->
<svg version="1.1" id="Layer_1" xmlns="http://www.w3.org/2000/svg" xmlns:xlink="http://www.w3.org/1999/xlink" x="0px" y="0px"
	 viewBox="0 0 100 90.5" style="enable-background:new 0 0 100 90.5;" xml:space="preserve">
<style type="text/css">
	.st0{fill:#E6EBEE;stroke:#000000;stroke-miterlimit:10;}
	.st1{fill:#2EBFC8;stroke:#000000;stroke-miterlimit:10;}
	.st2{fill:#EF443B;stroke:#000000;stroke-miterlimit:10;}
	.st3{fill:#C62026;stroke:#000000;stroke-miterlimit:10;}
	.st4{fill:#A1A9D5;stroke:#000000;stroke-miterlimit:10;}
	.st5{fill:#FFC82C;stroke:#000000;stroke-miterlimit:10;}
	.st6{fill:#FBEA86;stroke:#000000;stroke-miterlimit:10;}
	.st7{fill:#FFFFFF;}
	.st8{fill:#FCDE7F;stroke:#000000;stroke-miterlimit:10;}
	.st9{fill:none;stroke:#000000;stroke-miterlimit:10;}
</style>
<path id="XMLID_4684_" class="st0" d="M6.9,2.4h86.3v52.9H6.9V2.4z"/>
<path id="XMLID_4683_" class="st1" d="M6.9,2.4h86.3v11.1H6.9V2.4z"/>
<path id="XMLID_4680_" class="st2" d="M73.8,45.7v-5.9l-5.6-2l-1.8-4.3l2.5-5.3l-4.2-4.2l-5.3,2.5l-4.3-1.8l-2-5.6h-5.9l-2,5.6
	l-4.3,1.8l-5.3-2.5l-4.2,4.2l2.5,5.3L32,37.8l-5.6,2v5.9l5.6,2l1.8,4.3l-2.5,5.3l4.2,4.2l5.3-2.5c1.7,0.7,2.6,1.1,4.3,1.8l2,5.6h5.9
	l2-5.6c1.7-0.7,2.6-1.1,4.3-1.8l5.3,2.5l4.2-4.2l-2.5-5.3l1.8-4.3L73.8,45.7z M50.1,49.9c-3.5,0-6.3-2.8-6.3-6.3
	c0-3.5,2.8-6.3,6.3-6.3c3.5,0,6.3,2.8,6.3,6.3C56.4,47.1,53.6,49.9,50.1,49.9z"/>
<path id="XMLID_4677_" class="st3" d="M50.1,32c-6.5,0-11.8,5.3-11.8,11.8s5.3,11.8,11.8,11.8s11.8-5.3,11.8-11.8S56.6,32,50.1,32z
	 M50.1,49.9c-3.5,0-6.3-2.8-6.3-6.3c0-3.5,2.8-6.3,6.3-6.3c3.5,0,6.3,2.8,6.3,6.3C56.4,47.1,53.6,49.9,50.1,49.9z"/>
<path id="XMLID_4676_" class="st4" d="M5.5,48.3h12.5V79H5.5V48.3z"/>
<path id="XMLID_4675_" class="st5" d="M51.3,60.1L66,77.6c1.2,1.5,1,3.7-0.4,4.9c-1.5,1.2-3.7,1-4.9-0.4L58,84.3
	c-1.5,1.2-3.7,1-4.9-0.4l-2.7,2.2c-1.5,1.2-3.7,1-4.9-0.4l-2.7,2.3c-1.5,1.2-3.6,1-4.9-0.4l-9.6-11.2c-0.8-0.9-2-1.5-3.2-1.5h-7.1
	V52.5h8.2l8.5-5.6h11.1l4.2,2.8L51.3,60.1z"/>
<path id="XMLID_4674_" class="st4" d="M82.1,48.3h12.5V79H82.1V48.3z"/>
<path id="XMLID_4673_" class="st6" d="M82.1,52.5h-8.2l-8.5-5.6H53.6L36.2,60.9c1.3,1.8,3.2,3.1,5.4,3.4c2.2,0.4,4.4-0.2,6.2-1.5
	l3.5-2.6L66,77.6c0.4,0.4,0.6,0.9,0.7,1.5l7.1-4.2h8.4V52.5z"/>
<g id="XMLID_4662_">
	<path id="XMLID_4672_" class="st7" d="M33.4,6.6h55.7v2.8H33.4V6.6z"/>
	<path id="XMLID_4671_" class="st7" d="M11.1,6.6h2.8v2.8h-2.8V6.6z"/>
	<path id="XMLID_4670_" class="st7" d="M16.7,6.6h2.8v2.8h-2.8V6.6z"/>
	<path id="XMLID_4669_" class="st7" d="M22.3,6.6H25v2.8h-2.8V6.6z"/>
	<path id="XMLID_4668_" class="st7" d="M11.1,72h2.8v2.8h-2.8V72z"/>
	<path id="XMLID_4667_" class="st7" d="M86.3,72h2.8v2.8h-2.8V72z"/>
	<path id="XMLID_4666_" class="st7" d="M11.1,28.9H25v2.8H11.1V28.9z"/>
	<path id="XMLID_4665_" class="st7" d="M11.1,34.4h8.4v2.8h-8.4V34.4z"/>
	<path id="XMLID_4664_" class="st7" d="M75.2,28.9h13.9v2.8H75.2V28.9z"/>
	<path id="XMLID_4663_" class="st7" d="M80.7,34.4h8.4v2.8h-8.4V34.4z"/>
</g>
<line id="XMLID_4574_" class="st8" x1="68.9" y1="16.2" x2="70.4" y2="16.2"/>
<line id="XMLID_4575_" class="st9" x1="96.9" y1="79" x2="98.4" y2="79"/>
<line id="XMLID_4576_" class="st9" x1="1.8" y1="79" x2="3.3" y2="79"/>
<line id="XMLID_4573_" class="st8" x1="72" y1="16.2" x2="91.2" y2="16.2"/>
<line id="XMLID_4577_" class="st8" x1="92.2" y1="54.1" x2="92.2" y2="73.2"/>
<line id="XMLID_4581_" class="st8" x1="8.1" y1="54.1" x2="8.1" y2="73.2"/>
<path id="XMLID_2194_" class="st9" d="M37.1,84.3c0,0,3,5.4,6.7,0.7"/>
</svg>
