<?xml version="1.0" encoding="utf-8"?>
<!-- Generator: Adobe Illustrator 19.0.0, SVG Export Plug-In . SVG Version: 6.00 Build 0)  -->
<svg version="1.1" id="Layer_1" xmlns="http://www.w3.org/2000/svg" xmlns:xlink="http://www.w3.org/1999/xlink" x="0px" y="0px"
	 viewBox="0 0 108.3 99.2" style="enable-background:new 0 0 108.3 99.2;" xml:space="preserve">
<style type="text/css">
	.st0{fill:none;stroke:#000000;stroke-miterlimit:10;}
	.st1{fill:#2EBFC8;stroke:#000000;stroke-miterlimit:10;}
	.st2{fill:#E6EBEE;stroke:#000000;stroke-miterlimit:10;}
	.st3{fill:#595A5C;stroke:#000000;stroke-miterlimit:10;}
	.st4{fill:#A8AAAD;stroke:#000000;stroke-miterlimit:10;}
	.st5{fill:#818285;stroke:#000000;stroke-miterlimit:10;}
	.st6{fill:#FEDA46;stroke:#000000;stroke-miterlimit:10;}
	.st7{fill:#C1AC92;stroke:#000000;stroke-miterlimit:10;}
	.st8{fill:#FEDA46;}
	.st9{fill:#EAE4DC;stroke:#000000;stroke-miterlimit:10;}
	.st10{fill:#231F20;}
</style>
<line id="XMLID_907_" class="st0" x1="63.4" y1="96.9" x2="67.6" y2="96.9"/>
<line id="XMLID_906_" class="st0" x1="34.4" y1="97.4" x2="39.5" y2="97.4"/>
<path id="XMLID_5223_" class="st1" d="M46.1,32.6c1.1,4.2,2.7,6.5,3.7,6.5s2.6-2.2,3.7-6.5C51,32.1,48.5,32.1,46.1,32.6z"/>
<path id="XMLID_5174_" class="st2" d="M92.6,11.7H70.3c3.9,9.3,1,20.1-7,26.2c-8,6.2-19.2,6.2-27.2,0c-8-6.2-10.9-16.9-7-26.2H6.9
	c-2.8,0-5.1,2.3-5.1,5.1v49.7h96V16.8C97.8,14,95.5,11.7,92.6,11.7z M5.2,18.6h3.4V22H5.2V18.6z M8.6,52.8H5.2v-3.4h3.4V52.8z
	 M22.3,52.8H12.1v-3.4h10.3V52.8z M22.3,42.6H5.2v-3.4h17.1V42.6z M22.3,32.3H5.2v-3.4h17.1V32.3z M22.3,22H12.1v-3.4h10.3V22z"/>
<path id="XMLID_5124_" class="st1" d="M54.2,11.2c-1.5,0.3-2.9,0.5-4.4,0.5c-1.5,0-3-0.2-4.4-0.5c-0.4,2.4-0.6,4.9-0.7,7.3h10.2
	C54.8,16.1,54.6,13.7,54.2,11.2z"/>
<path id="XMLID_5123_" class="st1" d="M49.8,28.8c1.5,0,3,0.2,4.4,0.5c0.4-2.4,0.6-4.9,0.7-7.3H44.7c0.1,2.5,0.3,4.9,0.7,7.3
	C46.8,29,48.3,28.8,49.8,28.8z"/>
<path id="XMLID_5119_" class="st3" d="M60.1,94H39.5c-0.9,0-1.7,0.8-1.7,1.7s0.8,1.7,1.7,1.7h20.6c0.9,0,1.7-0.8,1.7-1.7
	S61,94,60.1,94z"/>
<path id="XMLID_5116_" class="st4" d="M1.8,71.7c0,2.8,2.3,5.1,5.1,5.1h85.7c2.8,0,5.1-2.3,5.1-5.1V70h-96V71.7z M46.3,71.7h6.9v3.4
	h-6.9V71.7z"/>
<path id="XMLID_5114_" class="st1" d="M60.6,4.8C58.9,3.6,57,2.7,55,2.2c0.8,1.5,1.4,3.1,1.8,4.8C58.1,6.4,59.4,5.7,60.6,4.8z"/>
<path id="XMLID_5113_" class="st5" d="M44.3,80.3l-2.6,10.3h16.2l-2.6-10.3H44.3z"/>
<path id="XMLID_5112_" class="st1" d="M57.5,30.2c2.1,0.8,4,1.8,5.8,3.2c3-3.1,4.9-7.1,5.3-11.4H58.3C58.3,24.7,58,27.5,57.5,30.2z"
	/>
<path id="XMLID_5111_" class="st1" d="M56.8,33.6c-0.4,1.6-1,3.2-1.8,4.8c2-0.6,3.9-1.5,5.6-2.7C59.4,34.9,58.1,34.2,56.8,33.6z"/>
<path id="XMLID_5110_" class="st1" d="M58.3,18.6h10.2c-0.4-4.3-2.3-8.3-5.3-11.4c-1.8,1.3-3.7,2.4-5.8,3.2
	C58,13,58.3,15.8,58.3,18.6z"/>
<path id="XMLID_5109_" class="st1" d="M42,30.2c-0.5-2.7-0.7-5.5-0.8-8.2H31c0.4,4.3,2.3,8.3,5.3,11.4C38,32.1,40,31,42,30.2z"/>
<path id="XMLID_5108_" class="st1" d="M44.6,2.2c-2,0.6-3.9,1.5-5.6,2.7c1.2,0.8,2.5,1.5,3.8,2.1C43.2,5.3,43.8,3.7,44.6,2.2z"/>
<path id="XMLID_5107_" class="st1" d="M39,35.7c1.7,1.2,3.6,2.1,5.6,2.7c-0.8-1.5-1.4-3.1-1.8-4.8C41.4,34.2,40.1,34.9,39,35.7z"/>
<path id="XMLID_5106_" class="st1" d="M42,10.3c-2.1-0.8-4-1.8-5.8-3.2c-3,3.1-4.9,7.1-5.3,11.4h10.2C41.3,15.8,41.6,13,42,10.3z"/>
<path id="XMLID_5105_" class="st1" d="M53.5,7.9c-1.1-4.2-2.7-6.5-3.7-6.5s-2.6,2.2-3.7,6.5c1.2,0.2,2.5,0.4,3.7,0.4
	C51,8.3,52.3,8.1,53.5,7.9z"/>
<path id="XMLID_5104_" class="st6" d="M106.8,65.5l-3.6-1.2c0-0.2,0-0.4,0-0.6c0-2.1-0.4-4.1-1.1-6l3.1-2.1l-3.8-6.3l-3.2,2.2
	c-1.5-1.6-3.4-2.9-5.4-3.8l1.4-4.3l-7.1-1.8L85.8,46c-0.1,0-0.2,0-0.3,0c-1.9,0-3.7,0.3-5.5,0.9l-2.6-3.8l-6.3,3.8l2.6,3.8
	c-1.6,1.4-2.9,3.1-3.9,5l-4.6-0.8l-1.8,6.2l4.5,1.5c0,0.4-0.1,0.8-0.1,1.2c0,1.8,0.3,3.6,0.8,5.4L64.9,71l3.8,6.3l3.3-2.2
	c1.4,1.7,3.2,3.2,5.2,4.3l-1.3,3.9l7.1,1.8l1.2-3.6c0.5,0,1,0.1,1.5,0.1c6.8,0,13-3.9,15.9-10l3.5,1.2L106.8,65.5z"/>
<g id="XMLID_5101_">
	<path id="XMLID_5103_" class="st7" d="M96.9,75l-2.2-3.8c-1.9,2.4-4.6,4-7.7,4.4l2.2,3.8l1.5-0.9l4.6-2.7L96.9,75z"/>
	<path id="XMLID_5102_" class="st7" d="M95.4,75.9l-4.6,2.7l7.5,13c0.7,1.3,2.4,1.7,3.6,1c1.3-0.7,1.7-2.4,1-3.6L95.4,75.9z"/>
</g>
<g id="XMLID_5091_">
	<path id="XMLID_5098_" class="st8" d="M94.7,71.2L94.7,71.2L94.7,71.2c4.3-5.3,3.5-13.1-1.8-17.4s-13.1-3.5-17.4,1.8
		S72,68.7,77.3,73.1c2.7,2.2,6.3,3.2,9.8,2.6l0,0l0,0C90.1,75.2,92.8,73.6,94.7,71.2z M76.7,68.3C74,63.6,75.6,57.7,80.2,55
		s10.6-1.1,13.3,3.6c2.7,4.7,1.1,10.6-3.6,13.3C85.3,74.6,79.3,73,76.7,68.3z"/>
	<path id="XMLID_5092_" class="st8" d="M93.5,58.6c-2.7-4.7-8.6-6.3-13.3-3.6s-6.3,8.6-3.6,13.3c2.7,4.7,8.6,6.3,13.3,3.6
		C94.6,69.2,96.2,63.2,93.5,58.6L93.5,58.6z M79.7,66.5l1.5-0.9L79.7,66.5z M82.8,64.8l1.5-0.9L82.8,64.8z M85.9,63l1.5-0.9L85.9,63
		z M88.9,61.2l1.5-0.9L88.9,61.2z"/>
</g>
<circle id="XMLID_5090_" class="st9" cx="85.5" cy="63.7" r="12.4"/>
<circle id="XMLID_901_" class="st9" cx="85.5" cy="63.7" r="9.2"/>
<path id="XMLID_900_" class="st10" d="M81.3,65.8l1.5-0.9l0.9,1.5l-1.5,0.9L81.3,65.8z"/>
<path id="XMLID_899_" class="st10" d="M84.3,64.1l1.5-0.9l0.9,1.5l-1.5,0.9L84.3,64.1z"/>
<path id="XMLID_898_" class="st10" d="M87.4,62.3l1.5-0.9l0.9,1.5l-1.5,0.9L87.4,62.3z"/>
</svg>
