<?xml version="1.0" encoding="utf-8"?>
<!-- Generator: Adobe Illustrator 19.0.0, SVG Export Plug-In . SVG Version: 6.00 Build 0)  -->
<svg version="1.1" id="Layer_1" xmlns="http://www.w3.org/2000/svg" xmlns:xlink="http://www.w3.org/1999/xlink" x="0px" y="0px"
	 viewBox="0 0 125.8 121" style="enable-background:new 0 0 125.8 121;" xml:space="preserve">
<style type="text/css">
	.st0{fill:#E7E9ED;stroke:#000000;stroke-miterlimit:10;}
	.st1{fill:#CCD1D9;}
	.st2{fill:#E41E26;stroke:#000000;stroke-miterlimit:10;}
	.st3{fill:#CCD1D9;stroke:#000000;stroke-miterlimit:10;}
	.st4{fill:#FCD770;}
	.st5{fill:#FFC82C;stroke:#000000;stroke-miterlimit:10;}
	.st6{fill:#010101;}
	.st7{fill:none;stroke:#000000;stroke-miterlimit:10;}
</style>
<path id="XMLID_2155_" class="st0" d="M80.1,74.2c-5-1.1-21.4-4.8-21.4-4.8L47,77.3l-11.8-7.8l-20,4C9.7,74.5,5.8,79.3,5.8,85v33.5
	h82.4c0,0,1.7-15.8,1-33.1C89.2,84.8,90.5,76.6,80.1,74.2z"/>
<path id="XMLID_2154_" class="st1" d="M21.5,116.8V87.7l-5.9,29.1H21.5z"/>
<path id="XMLID_2153_" class="st1" d="M70.5,117V87.1l5.9,29.9H70.5z"/>
<path id="XMLID_2152_" class="st2" d="M54.8,83.2L47,75.3l-7.8,7.8L43,91l-3.9,27.5h15.7L50.9,91L54.8,83.2z"/>
<path id="XMLID_2145_" class="st3" d="M29.3,70.6v0.8l5.9,15.7L47,77.3l-11.8-7.8L29.3,70.6z"/>
<path id="XMLID_2144_" class="st3" d="M58.7,69.4L47,77.3l11.8,9.8l5.9-15.7v-0.8L58.7,69.4z"/>
<path id="XMLID_2133_" class="st0" d="M113.7,2l10.7,10.7v42.7H85.2V2H113.7z"/>
<path id="XMLID_2132_" class="st4" d="M108.3,28.8h-16v19.6h24.9V28.8H108.3z"/>
<path id="XMLID_2131_" class="st1" d="M123.8,12.9L113.4,2.5h-2l0,12.3l12.4,0L123.8,12.9z"/>
<path id="XMLID_2130_" class="st5" d="M114.3,2.9l-0.4,8.9l9.7,0.3L114.3,2.9z"/>
<path id="XMLID_2129_" class="st6" d="M103,38.7l-4.1-4.1l-2.5,2.5l6.6,6.6l17.3-17.3l-2.5-2.5L103,38.7z"/>
<path id="XMLID_2128_" class="st6" d="M117.2,48.3l-24.9,0l0-19.6l16,0V27H90.5v23.1H119V35.9h-1.8V48.3z"/>
<path id="XMLID_2127_" class="st6" d="M90.5,7.4h3.6v3.6h-3.6V7.4z"/>
<path id="XMLID_2126_" class="st6" d="M97.6,7.4h10.7v3.6H97.6V7.4z"/>
<path id="XMLID_2125_" class="st6" d="M90.5,14.5h3.6v3.6h-3.6V14.5z"/>
<path id="XMLID_2124_" class="st6" d="M97.6,14.5h10.7v3.6H97.6V14.5z"/>
<path id="XMLID_4957_" class="st6" d="M43,37.6h7.9c1.1,0,2,0.9,2,2h3.9c0-3.3-2.7-5.9-5.9-5.9h-2v-2H45v2h-2
	c-3.3,0-5.9,2.7-5.9,5.9v2c0,3.3,2.7,5.9,5.9,5.9h7.9c1.1,0,2,0.9,2,2v2c0,1.1-0.9,2-2,2H43c-1.1,0-2-0.9-2-2h-3.9
	c0,3.3,2.7,5.9,5.9,5.9h2v2h3.9v-2h2c3.3,0,5.9-2.7,5.9-5.9v-2c0-3.3-2.7-5.9-5.9-5.9H43c-1.1,0-2-0.9-2-2v-2
	C41,38.5,41.9,37.6,43,37.6z"/>
<path id="XMLID_2598_" class="st5" d="M75,38.8c-0.7-3-1.9-5.7-3.4-8.3l3.2-5.4l-7.4-7.4L62,20.9c-2.5-1.5-5.3-2.7-8.3-3.4l-1.5-6.1
	H41.7l-1.5,6.1c-3,0.7-5.7,1.9-8.3,3.4l-5.4-3.2l-7.4,7.4l3.2,5.4c-1.6,2.5-2.7,5.3-3.4,8.3l-6.1,1.5v10.5l6.1,1.5
	c0.7,3,1.9,5.7,3.4,8.3L19.1,66l7.4,7.4l5.4-3.2c2.5,1.6,5.3,2.7,8.3,3.4l1.5,6.1h10.5l1.5-6.1c3-0.7,5.7-1.9,8.3-3.4l5.4,3.2
	l7.4-7.4l-3.2-5.4c1.5-2.5,2.7-5.3,3.4-8.3l6.1-1.5V40.3L75,38.8z M47,67.9c-12.2,0-22-10-22-22.3s9.9-22.3,22-22.3
	c12.2,0,22,10,22,22.3S59.1,67.9,47,67.9z"/>
<line id="XMLID_4502_" class="st7" x1="91.2" y1="118.7" x2="93.3" y2="118.7"/>
<line id="XMLID_4503_" class="st7" x1="0.9" y1="118.5" x2="3" y2="118.5"/>
</svg>
