<?xml version="1.0" encoding="utf-8"?>
<!-- Generator: Adobe Illustrator 19.0.0, SVG Export Plug-In . SVG Version: 6.00 Build 0)  -->
<svg version="1.1" id="Layer_1" xmlns="http://www.w3.org/2000/svg" xmlns:xlink="http://www.w3.org/1999/xlink" x="0px" y="0px"
	 viewBox="0 0 100 100" style="enable-background:new 0 0 100 100;" xml:space="preserve">
<style type="text/css">
	.st0{fill:#FFFFFF;stroke:#EE2524;stroke-miterlimit:10;}
</style>
<polyline id="XMLID_781_" class="st0" points="14,32.5 3.5,32.5 3.5,78 "/>
<polyline id="XMLID_780_" class="st0" points="86,32.5 95.5,32.5 95.5,95.5 3.5,95.5 3.5,84.5 91,84.5 "/>
<ellipse id="XMLID_779_" class="st0" cx="50.5" cy="58.9" rx="15.7" ry="15.8"/>
<polygon id="XMLID_778_" class="st0" points="44.5,51.7 44.5,65.2 56.8,58.9 "/>
<path id="XMLID_777_" class="st0" d="M17.4,89.5h62.8H17.4z"/>
<line id="XMLID_736_" class="st0" x1="9" y1="89.5" x2="13" y2="89.5"/>
<line id="XMLID_735_" class="st0" x1="82" y1="89.5" x2="83" y2="89.5"/>
<line id="XMLID_734_" class="st0" x1="88" y1="89.5" x2="91" y2="89.5"/>
<ellipse id="XMLID_733_" class="st0" cx="22.2" cy="31.8" rx="4.8" ry="4.6"/>
<ellipse id="XMLID_732_" class="st0" cx="51.3" cy="34" rx="4.8" ry="4.6"/>
<ellipse id="XMLID_731_" class="st0" cx="78.3" cy="34" rx="4.8" ry="4.6"/>
<ellipse id="XMLID_730_" class="st0" cx="73.8" cy="9.4" rx="4.8" ry="4.6"/>
<ellipse id="XMLID_729_" class="st0" cx="51.3" cy="7.1" rx="4.8" ry="4.6"/>
<path id="XMLID_728_" class="st0" d="M31.4,9.4c0,1.4-0.6,2.6-1.6,3.4c-0.8,0.7-2,1.2-3.2,1.2c-2.6,0-4.8-2.1-4.8-4.6
	s2.1-4.6,4.8-4.6S31.4,6.8,31.4,9.4z"/>
<line id="XMLID_727_" class="st0" x1="47.9" y1="30.9" x2="29.8" y2="12.8"/>
<line id="XMLID_726_" class="st0" x1="49.5" y1="29" x2="49.5" y2="12"/>
<line id="XMLID_725_" class="st0" x1="54" y1="30.2" x2="70.6" y2="12.8"/>
<line id="XMLID_724_" class="st0" x1="47" y1="32.5" x2="26" y2="32.5"/>
<line id="XMLID_496_" class="st0" x1="74" y1="32.5" x2="56" y2="32.5"/>
</svg>
