<?xml version="1.0" encoding="utf-8"?>
<!-- Generator: Adobe Illustrator 19.0.0, SVG Export Plug-In . SVG Version: 6.00 Build 0)  -->
<svg version="1.1" id="Layer_1" xmlns="http://www.w3.org/2000/svg" xmlns:xlink="http://www.w3.org/1999/xlink" x="0px" y="0px"
	 viewBox="0 0 94.6 117.5" style="enable-background:new 0 0 94.6 117.5;" xml:space="preserve">
<style type="text/css">
	.st0{fill:#EF443B;stroke:#000000;stroke-width:0.75;stroke-miterlimit:10;}
	.st1{fill:none;stroke:#131831;stroke-miterlimit:10;}
	.st2{fill:none;stroke:#131831;stroke-width:0.75;stroke-miterlimit:10;}
	.st3{fill:#FFCE04;stroke:#131831;stroke-miterlimit:10;}
	.st4{fill:#FFFFFF;}
	.st5{fill:#FFFFFF;stroke:#131831;stroke-miterlimit:10;}
	.st6{fill:none;stroke:#000000;stroke-miterlimit:10;}
	.st7{fill:none;stroke:#000000;stroke-width:0.75;stroke-miterlimit:10;}
</style>
<path id="XMLID_438_" class="st0" d="M34.7,62.8v52.2l7-6.4l4.9,5.2l5.2-5.5l7.5,6.7V63.6L34.7,62.8z M54.3,105.6l-4.8-3.8l-3.2,3.7
	l-3.3-3.7l-4.6,3.7V88.8h15.9V105.6z M54.3,82.3H38.4V73c7,5.1,15.9,0,15.9,0V82.3z"/>
<line id="XMLID_4817_" class="st1" x1="24.9" y1="114.9" x2="24.9" y2="53.8"/>
<line id="XMLID_4816_" class="st1" x1="68.9" y1="114.9" x2="68.9" y2="53.8"/>
<line id="XMLID_4813_" class="st2" x1="34.7" y1="85.4" x2="59.4" y2="85.4"/>
<circle id="XMLID_4607_" class="st3" cx="46.9" cy="45.6" r="25.2"/>
<polygon id="XMLID_4606_" class="st4" points="57.4,45.6 41.6,56.4 41.6,45.8 41.6,34.8 "/>
<path id="XMLID_4605_" class="st5" d="M41.6,57.1c-0.1,0-0.2,0-0.3-0.1c-0.2-0.1-0.4-0.4-0.4-0.6V34.8c0-0.3,0.1-0.5,0.4-0.6
	c0.2-0.1,0.5-0.1,0.7,0L57.8,45c0.2,0.1,0.3,0.4,0.3,0.6c0,0.2-0.1,0.5-0.3,0.6L42,57C41.9,57.1,41.8,57.1,41.6,57.1z"/>
<line id="XMLID_4500_" class="st6" x1="18.3" y1="114.9" x2="21.2" y2="114.9"/>
<line id="XMLID_4527_" class="st6" x1="72.1" y1="115.2" x2="75" y2="115.2"/>
<rect id="XMLID_4604_" x="27.1" y="78.9" class="st7" width="5" height="8"/>
<rect id="XMLID_4820_" x="27.1" y="91.5" class="st7" width="5" height="8"/>
<rect id="XMLID_4821_" x="27.1" y="104.2" class="st7" width="5" height="8"/>
<rect id="XMLID_4835_" x="61.5" y="78.5" class="st7" width="5" height="8"/>
<rect id="XMLID_4834_" x="61.5" y="91" class="st7" width="5" height="8"/>
<rect id="XMLID_4822_" x="61.5" y="103.8" class="st7" width="5" height="8"/>
<path id="XMLID_4819_" class="st7" d="M27.1,65.4v9.1h5V70C32.1,70,29.4,69.6,27.1,65.4z"/>
<path id="XMLID_4840_" class="st7" d="M66.5,65.4v9.1h-5V70C61.5,70,64.2,69.6,66.5,65.4z"/>
<path id="XMLID_4842_" class="st6" d="M21.7,66.7c0,0-20.9-20.2-1.3-44"/>
<path id="XMLID_985_" class="st6" d="M16.9,75.8c0,0-28.9-28-1.8-60.9"/>
<path id="XMLID_4843_" class="st6" d="M26,18.9c0,0,20.3-18.5,42.3,0"/>
<path id="XMLID_4844_" class="st6" d="M71.9,23.4c0,0,21.3,20.3,0,45.5"/>
<path id="XMLID_4528_" class="st6" d="M63.7,32.9c0,0,12.3,11.7,0,26.2"/>
<path id="XMLID_984_" class="st6" d="M78.4,16c0,0,28.2,26.9,0,60.2"/>
<path id="XMLID_4851_" class="st6" d="M19.8,11.1c0,0,25.4-21.5,54.9,0.7"/>
</svg>
