<?xml version="1.0" encoding="utf-8"?>
<!-- Generator: Adobe Illustrator 19.0.0, SVG Export Plug-In . SVG Version: 6.00 Build 0)  -->
<svg version="1.1" id="Layer_1" xmlns="http://www.w3.org/2000/svg" xmlns:xlink="http://www.w3.org/1999/xlink" x="0px" y="0px"
	 viewBox="0 0 98.8 95.4" style="enable-background:new 0 0 98.8 95.4;" xml:space="preserve">
<style type="text/css">
	.st0{fill:#F4C09A;stroke:#000000;stroke-miterlimit:10;}
	.st1{fill:#D7D6D4;}
	.st2{fill:#EF443B;}
	.st3{fill:#F5B88C;stroke:#010101;stroke-miterlimit:10;}
	.st4{fill:#C9C9C9;}
	.st5{fill:#C0BFBF;}
	.st6{fill:#FEDA09;stroke:#000000;stroke-miterlimit:10;}
	.st7{fill:#F9BF14;stroke:#000000;stroke-miterlimit:10;}
	.st8{fill:#010101;}
	.st9{fill:#F2F2F2;}
	.st10{fill:#E6E6E5;}
	.st11{fill:none;stroke:#010101;stroke-miterlimit:10;}
	.st12{fill:none;stroke:#000000;stroke-miterlimit:10;}
</style>
<path id="XMLID_4833_" class="st0" d="M67,1.3L67,1.3c7.1,0,12.8,5.7,12.8,12.8v6.4c0,7.1-5.7,12.8-12.8,12.8l0,0
	c-7.1,0-12.8-5.7-12.8-12.8v-6.4C54.2,7,60,1.3,67,1.3z"/>
<path id="XMLID_4832_" class="st1" d="M94.2,94H39.9V52.4c0-7.1,5.7-12.8,12.8-12.8h28.8c7.1,0,12.8,5.7,12.8,12.8V94z"/>
<polygon id="XMLID_4831_" class="st2" points="71.8,39.6 62.2,39.6 65.4,47.6 68.6,47.6 "/>
<polygon id="XMLID_4830_" class="st2" points="65.4,47.6 62.2,82.8 67,87.6 71.8,82.8 68.6,47.6 "/>
<path id="XMLID_4829_" class="st3" d="M67,1.3c-1.1,0-2.2,0.1-3.2,0.4c5.6,1.5,9.6,6.5,9.6,12.4v6.4c0,5.8-3.9,10.9-9.6,12.4
	c6.8,1.8,13.8-2.3,15.6-9.1c0.3-1.1,0.4-2.2,0.4-3.3v-6.4C79.8,7,74.1,1.3,67,1.3z"/>
<path id="XMLID_4828_" class="st4" d="M59,56.1V39.6h-6.4c-7.1,0-12.8,5.7-12.8,12.8v36.8l0.3-0.2C51.8,82.2,59,69.6,59,56.1z"/>
<rect id="XMLID_4827_" x="81.4" y="52.4" class="st5" width="3.2" height="41.5"/>
<rect id="XMLID_4826_" x="49.5" y="66.8" class="st5" width="3.2" height="27.2"/>
<path id="XMLID_4825_" class="st6" d="M28.7,94l8.3-4.9c11.7-6.9,18.9-19.5,18.9-33.1V38l0,0c-9.3,0-18.4-3-25.9-8.6l-1.3-1l-1.3,1
	C19.9,35,10.9,38,1.5,38l0,0v18c0,13.6,7.2,26.2,18.9,33.1L28.7,94z"/>
<path id="XMLID_4824_" class="st7" d="M45.8,36.8C39.4,55,26.5,70.3,9.6,79.6c3,3.8,6.6,7.1,10.8,9.5l8.3,4.9l8.3-4.9
	c11.7-6.9,18.9-19.5,18.9-33.1V38C52.5,38,49.1,37.6,45.8,36.8z"/>
<path id="XMLID_4823_" class="st6" d="M23.7,83.6C13.9,77.8,7.9,67.4,7.9,56.1V44c7.4-1,14.5-3.6,20.8-7.7C34.9,40.4,42,43,49.5,44
	v12c0,11.3-6,21.8-15.8,27.5l-5,2.9L23.7,83.6z"/>
<path id="XMLID_4814_" class="st7" d="M28.7,36.3C22.4,40.4,15.3,43,7.9,44v4.2c7.4-1,14.5-3.6,20.8-7.7c6.3,4.1,13.4,6.7,20.8,7.7
	V44C42,43,34.9,40.4,28.7,36.3z"/>
<rect id="XMLID_4799_" x="11.9" y="52.3" class="st8" width="2.6" height="2.6"/>
<rect id="XMLID_4798_" x="11.9" y="61.5" class="st8" width="2.6" height="2.6"/>
<rect id="XMLID_4797_" x="43.2" y="52.7" class="st8" width="2.6" height="2.6"/>
<rect id="XMLID_4796_" x="43.2" y="61.8" class="st8" width="2.6" height="2.6"/>
<rect id="XMLID_4795_" x="15.8" y="69.3" class="st8" width="2.6" height="2.6"/>
<rect id="XMLID_4794_" x="39.3" y="69.6" class="st8" width="2.6" height="2.6"/>
<rect id="XMLID_4793_" x="27.4" y="77.2" class="st8" width="2.6" height="2.6"/>
<polygon id="XMLID_4805_" class="st9" points="26.7,70.8 19.9,64 23.6,60.2 26.7,63.3 35.5,54.5 39.2,58.3 "/>
<polygon id="XMLID_4801_" class="st10" points="29.5,67.9 29.5,60.4 35.5,54.5 39.2,58.3 "/>
<path id="XMLID_4802_" class="st11" d="M39.9,89.3V94h54.3l-0.1-43.1c0,0-1.3-8.8-11.1-11.2H71.8h-9.6l3.2,8l-3.2,35.2l4.8,4.8
	l4.8-4.8l-3.2-35.2l3.2-8"/>
<line id="XMLID_4803_" class="st11" x1="83" y1="94" x2="83" y2="52.4"/>
<line id="XMLID_4804_" class="st11" x1="51" y1="94" x2="51" y2="79.6"/>
<line id="XMLID_4800_" class="st12" x1="95.8" y1="94" x2="98" y2="94"/>
<line id="XMLID_4806_" class="st12" x1="35.9" y1="94" x2="38" y2="94"/>
</svg>
