<?xml version="1.0" encoding="utf-8"?>
<!-- Generator: Adobe Illustrator 19.0.0, SVG Export Plug-In . SVG Version: 6.00 Build 0)  -->
<svg version="1.1" id="Layer_1" xmlns="http://www.w3.org/2000/svg" xmlns:xlink="http://www.w3.org/1999/xlink" x="0px" y="0px"
	 viewBox="0 0 86.5 94.9" style="enable-background:new 0 0 86.5 94.9;" xml:space="preserve">
<style type="text/css">
	.st0{fill:#FCD770;}
	.st1{fill:#2EBFC8;stroke:#000000;stroke-miterlimit:10;}
	.st2{fill:#FBEA86;stroke:#000000;stroke-miterlimit:10;}
	.st3{fill:#BD2227;stroke:#000000;stroke-miterlimit:10;}
	.st4{fill:#E6F2FB;stroke:#000000;stroke-miterlimit:10;}
	.st5{fill:#EF443B;stroke:#000000;stroke-miterlimit:10;}
	.st6{fill:#363B5B;stroke:#000000;stroke-miterlimit:10;}
	.st7{fill:#FFC82C;stroke:#000000;stroke-miterlimit:10;}
	.st8{fill:none;stroke:#000000;stroke-miterlimit:10;}
	.st9{fill:#FCDE7F;stroke:#000000;stroke-miterlimit:10;}
</style>
<circle id="XMLID_4773_" class="st0" cx="58.9" cy="14.8" r="3.4"/>
<circle id="XMLID_4772_" class="st0" cx="69.2" cy="38.9" r="3.4"/>
<path id="XMLID_4747_" class="st1" d="M57.2,19.6v15.8h3.4V19.6c2-0.7,3.4-2.6,3.4-4.8c0-2.8-2.3-5.2-5.2-5.2
	c-2.8,0-5.2,2.3-5.2,5.2C53.7,17,55.2,18.9,57.2,19.6z M58.9,13.1c0.9,0,1.7,0.8,1.7,1.7c0,1-0.8,1.7-1.7,1.7
	c-0.9,0-1.7-0.8-1.7-1.7C57.2,13.8,57.9,13.1,58.9,13.1z"/>
<path id="XMLID_4744_" class="st2" d="M64,38.9c0,2.8,2.3,5.2,5.2,5.2c2.8,0,5.2-2.3,5.2-5.2c0-2.2-1.4-4.1-3.4-4.8V18.2h-3.4V34
	C65.5,34.7,64,36.6,64,38.9z M69.2,37.1c0.9,0,1.7,0.8,1.7,1.7c0,1-0.8,1.7-1.7,1.7c-0.9,0-1.7-0.8-1.7-1.7
	C67.5,37.9,68.3,37.1,69.2,37.1z"/>
<circle id="XMLID_4597_" class="st0" cx="9.2" cy="6.2" r="3.4"/>
<circle id="XMLID_4596_" class="st0" cx="19.4" cy="30" r="3.4"/>
<path id="XMLID_4593_" class="st1" d="M7.5,11v15.6h3.4V11c2-0.7,3.4-2.6,3.4-4.8c0-2.8-2.3-5.1-5.1-5.1S4.1,3.4,4.1,6.2
	C4.1,8.4,5.5,10.3,7.5,11z M9.2,4.5c0.9,0,1.7,0.8,1.7,1.7s-0.8,1.7-1.7,1.7c-0.9,0-1.7-0.8-1.7-1.7S8.2,4.5,9.2,4.5z"/>
<path id="XMLID_4590_" class="st2" d="M14.3,30c0,2.8,2.3,5.1,5.1,5.1s5.1-2.3,5.1-5.1c0-2.2-1.4-4.1-3.4-4.8V9.6h-3.4v15.6
	C15.7,25.9,14.3,27.8,14.3,30z M19.4,28.3c0.9,0,1.7,0.8,1.7,1.7c0,0.9-0.8,1.7-1.7,1.7c-0.9,0-1.7-0.8-1.7-1.7
	C17.7,29.1,18.5,28.3,19.4,28.3z"/>
<path id="XMLID_4479_" class="st3" d="M50.6,40.1h-2.5l-9,9c-0.6,0.6-1.6,0.6-2.2,0l-9-9h-2.5c-6.1,0-11,4.9-11,11v24.7l7.9,3.6
	V54.2h3.1v18.2c1-0.6,2-0.9,3.1-0.9l11.7,0c3.2-1.7,6.7-2.7,10.3-2.9V54.2h3.1v14.4c2.7,0.2,5.4,0.9,7.9,2V51.1
	C61.6,45,56.7,40.1,50.6,40.1z"/>
<path id="XMLID_4478_" class="st4" d="M51.9,71.7c-3.5,0-7,0.9-10.1,2.6l-0.4,0.2c-0.2,0.1-0.5,0.2-0.8,0.2H28.6
	c-1.7,0-3.1,1.4-3.1,3.1c0,0.1,0,0.1,0,0.2c0.1,1.7,1.5,3,3.1,3h14.1v3.1H25.5c-0.2,0-0.5,0-0.7-0.1l-12.5-5.7l-0.1-0.1l-0.8-0.4
	h-0.1v0l-4.4-2c-1.1-0.5-2.4-0.4-3.4,0.2c-1,0.7-1.6,1.8-1.6,3v0.3c0,1.3,0.8,2.6,2,3.2l20.3,10.2c1.1,0.5,2.3,0.8,3.5,0.8h33.9V74
	c-2.9-1.5-6.2-2.3-9.4-2.3C52.1,71.7,52,71.7,51.9,71.7z"/>
<path id="XMLID_4477_" class="st5" d="M38,45.7l5.6-5.6H32.4L38,45.7z"/>
<path id="XMLID_4474_" class="st6" d="M64.8,74.7v18.9H82V74.7H64.8z M71,90.4h-3.1v-3.1H71V90.4z"/>
<path id="XMLID_4471_" class="st7" d="M38,30.7c5.2,0,9.4-4.2,9.4-9.4v-6.3c0-5.2-4.2-9.4-9.4-9.4s-9.4,4.2-9.4,9.4v6.3
	C28.6,26.4,32.8,30.7,38,30.7z M31.8,14.9c0-2.7,1.7-5,4.2-5.9l1,3c-1.3,0.4-2.1,1.6-2.1,3v1.6h-3.1V14.9z"/>
<line id="XMLID_4598_" class="st8" x1="83.8" y1="93.5" x2="85.7" y2="93.5"/>
<line id="XMLID_4583_" class="st8" x1="17.1" y1="93.5" x2="19" y2="93.5"/>
<line id="XMLID_4599_" class="st9" x1="20.9" y1="93.5" x2="27.4" y2="93.5"/>
<path id="XMLID_4600_" class="st8" d="M17.4,48.9c0,0,1.3-7.1,10.1-5.4"/>
</svg>
