<?xml version="1.0" encoding="utf-8"?>
<!-- Generator: Adobe Illustrator 19.0.0, SVG Export Plug-In . SVG Version: 6.00 Build 0)  -->
<svg version="1.1" id="Layer_1" xmlns="http://www.w3.org/2000/svg" xmlns:xlink="http://www.w3.org/1999/xlink" x="0px" y="0px"
	 viewBox="0 0 108.3 97" style="enable-background:new 0 0 108.3 97;" xml:space="preserve">
<style type="text/css">
	.st0{fill:#FEDA46;stroke:#000000;stroke-miterlimit:10;}
	.st1{fill:none;stroke:#000000;stroke-miterlimit:10;}
	.st2{fill:#EFEEEE;stroke:#000000;stroke-miterlimit:10;}
	.st3{fill:#F58A68;stroke:#000000;stroke-miterlimit:10;}
	.st4{fill:#A1A9D5;stroke:#000000;stroke-miterlimit:10;}
	.st5{fill:#FFDF82;stroke:#000000;stroke-miterlimit:10;}
	.st6{fill:#FFFFFF;}
	.st7{fill:#010101;}
</style>
<path id="XMLID_908_" class="st0" d="M104.3,29.6l-1.6-8.7l-6.7,0.1c-0.6-1.4-1.4-2.7-2.3-4l3.3-5.7l-6.8-5.7l-5,4.3
	c-1.4-0.7-2.9-1.2-4.4-1.6l-1.1-6.5l-8.9,0l-1.1,6.5c-1.5,0.4-3,0.9-4.5,1.6l-5-4.2l-0.2,0.2l-6.6,5.6l3.3,5.6
	c-0.9,1.3-1.7,2.7-2.4,4.1L48,21l-1.5,8.7l6.2,2.2c0.1,1.6,0.4,3.1,0.8,4.6l-5.1,4.2l4.5,7.7l6.2-2.3c1.1,1.1,2.3,2.1,3.6,3
	l-1.2,6.5l8.3,3l3.3-5.8c1.5,0.1,3.1,0.1,4.6,0l3.3,5.8l8.3-3l-0.6-3.4L88.2,49c0.6-0.4,1.2-0.9,1.8-1.3c0.6-0.5,1.2-1,1.7-1.6
	l6.3,2.3l4.4-7.7l-5.2-4.3c0.4-1.5,0.7-3,0.8-4.5L104.3,29.6z M84.4,41.1c-0.6,0.5-1.2,0.9-1.8,1.2c-5.9,3.6-13.6,2.5-18.2-3
	c-5-6-4.3-14.9,1.7-20c0.5-0.4,1.1-0.8,1.6-1.2c5.9-3.7,13.7-2.6,18.3,2.9C91.2,27.1,90.4,36,84.4,41.1z"/>
<line id="XMLID_905_" class="st1" x1="1.5" y1="95.4" x2="5.3" y2="95.4"/>
<line id="XMLID_904_" class="st1" x1="103.3" y1="95.4" x2="107.1" y2="95.4"/>
<path id="XMLID_5075_" class="st2" d="M94.4,30.2c0-10.1-8-18.5-18.1-19c-10.1-0.5-18.9,7.1-19.8,17.2c-1,10.1,6.2,19.2,16.2,20.6
	v8.3h5.4V49C87.5,47.7,94.4,39.7,94.4,30.2z"/>
<path id="XMLID_5074_" class="st3" d="M70,57.4h10.9v38H70V57.4z"/>
<path id="XMLID_5073_" class="st4" d="M89,30.2c0,7.5-6.1,13.6-13.6,13.6c-7.5,0-13.6-6.1-13.6-13.6s6.1-13.6,13.6-13.6
	C82.9,16.7,89,22.7,89,30.2z"/>
<g id="XMLID_5069_">
	<path id="XMLID_5072_" class="st5" d="M13,72.1h10.9v23.3H13V72.1z"/>
	<path id="XMLID_5071_" class="st5" d="M32,62.8h10.9v32.6H32V62.8z"/>
	<path id="XMLID_5070_" class="st5" d="M51,51.9h10.9v43.4H51V51.9z"/>
</g>
<path id="XMLID_5068_" class="st6" d="M79.5,28.8l-4.1-4.1l-4.1,4.1l-1.9-1.9l6-6l6,6L79.5,28.8z"/>
<path id="XMLID_5067_" class="st6" d="M74.1,23.4h2.7v14.9h-2.7V23.4z"/>
<path id="XMLID_5056_" class="st7" d="M21.4,61.6H31L42.6,50v3.5h2.7v-8.1h-8.1V48h3.5L29.9,58.9h-9.5l-18,16.6l1.8,2L21.4,61.6z"/>
<path id="XMLID_5054_" class="st7" d="M87.6,61.4h8.1v2.7h-8.1V61.4z"/>
<path id="XMLID_5053_" class="st7" d="M87.6,66.9h8.1v2.7h-8.1V66.9z"/>
<path id="XMLID_5052_" class="st7" d="M87.6,72.3h8.1V75h-8.1V72.3z"/>
<path id="XMLID_5051_" class="st7" d="M87.6,77.7h8.1v2.7h-8.1V77.7z"/>
<path id="XMLID_5050_" class="st7" d="M87.6,83.1h8.1v2.7h-8.1V83.1z"/>
<path id="XMLID_5049_" class="st7" d="M87.6,88.6h8.1v2.7h-8.1V88.6z"/>
<line id="XMLID_902_" class="st1" x1="8" y1="95.4" x2="101.4" y2="95.5"/>
</svg>
