<?xml version="1.0" encoding="utf-8"?>
<!-- Generator: Adobe Illustrator 19.0.0, SVG Export Plug-In . SVG Version: 6.00 Build 0)  -->
<svg version="1.1" id="Layer_1" xmlns="http://www.w3.org/2000/svg" xmlns:xlink="http://www.w3.org/1999/xlink" x="0px" y="0px"
	 viewBox="0 0 100 100" style="enable-background:new 0 0 100 100;" xml:space="preserve">
<style type="text/css">
	.st0{fill:#FFFFFF;stroke:#EE2524;stroke-miterlimit:10;}
</style>
<g id="XMLID_835_">
	<line id="XMLID_854_" class="st0" x1="13.5" y1="87" x2="13.5" y2="46"/>
	<line id="XMLID_853_" class="st0" x1="6" y1="86.5" x2="27" y2="86.5"/>
	<polygon id="XMLID_852_" class="st0" points="31.3,31.5 9.2,31.5 4.1,45.5 24.4,45.5 	"/>
	<polygon id="XMLID_851_" class="st0" points="35.6,31.5 90.3,31.5 95.4,45.5 41.2,45.5 	"/>
	<polyline id="XMLID_850_" class="st0" points="13.5,30 13.5,6.5 82.5,6.5 82.5,30 	"/>
	<line id="XMLID_849_" class="st0" x1="31.5" y1="31" x2="31.5" y2="67"/>
	<line id="XMLID_848_" class="st0" x1="86.5" y1="45" x2="86.5" y2="74"/>
	<polyline id="XMLID_847_" class="st0" points="49,91.5 28.5,91.5 28.5,78.5 93.5,78.5 93.5,91.5 53,91.5 	"/>
	<line id="XMLID_846_" class="st0" x1="42" y1="85.5" x2="76" y2="85.5"/>
	<line id="XMLID_845_" class="st0" x1="35" y1="85.5" x2="39" y2="85.5"/>
	<line id="XMLID_844_" class="st0" x1="31.6" y1="70" x2="31.4" y2="74.3"/>
	<line id="XMLID_843_" class="st0" x1="79" y1="85.5" x2="83" y2="85.5"/>
	<line id="XMLID_842_" class="st0" x1="86" y1="85.5" x2="90" y2="85.5"/>
	<polygon id="XMLID_841_" class="st0" points="56.5,68.9 56.5,53.7 70.7,61.8 	"/>
	<polyline id="XMLID_840_" class="st0" points="39.5,31 39.5,19.5 68,19.5 	"/>
	<line id="XMLID_839_" class="st0" x1="31.5" y1="8" x2="31.5" y2="20"/>
	<line id="XMLID_838_" class="st0" x1="72" y1="12.5" x2="76" y2="12.5"/>
	<line id="XMLID_837_" class="st0" x1="72" y1="19.5" x2="76" y2="19.5"/>
	<line id="XMLID_836_" class="st0" x1="31.5" y1="23" x2="31.5" y2="27"/>
</g>
</svg>
