<?xml version="1.0" encoding="utf-8"?>
<!-- Generator: Adobe Illustrator 19.0.0, SVG Export Plug-In . SVG Version: 6.00 Build 0)  -->
<svg version="1.1" id="Layer_1" xmlns="http://www.w3.org/2000/svg" xmlns:xlink="http://www.w3.org/1999/xlink" x="0px" y="0px"
	 viewBox="0 0 92.8 98.3" style="enable-background:new 0 0 92.8 98.3;" xml:space="preserve">
<style type="text/css">
	.st0{fill:#FCDE7F;stroke:#000000;stroke-miterlimit:10;}
	.st1{fill:#6894CE;stroke:#000000;stroke-miterlimit:10;}
	.st2{fill:#BAE5F7;stroke:#000000;stroke-miterlimit:10;}
	.st3{fill:#9DDCF9;stroke:#000000;stroke-miterlimit:10;}
	.st4{fill:#5B6BB2;stroke:#000000;stroke-miterlimit:10;}
	.st5{fill:#E8F6FB;stroke:#000000;stroke-miterlimit:10;}
	.st6{fill:#EF443B;stroke:#000000;stroke-miterlimit:10;}
	.st7{fill:#FFC82C;stroke:#000000;stroke-miterlimit:10;}
	.st8{fill:#D1DF61;stroke:#000000;stroke-miterlimit:10;}
	.st9{fill:#131831;stroke:#131831;stroke-miterlimit:10;}
	.st10{fill:#5B6484;stroke:#000000;stroke-miterlimit:10;}
	.st11{fill:#48517B;stroke:#000000;stroke-miterlimit:10;}
	.st12{fill:#FFFFFF;stroke:#000000;stroke-miterlimit:10;}
	.st13{fill:#8CD4F4;}
	.st14{fill:#55BFEC;}
	.st15{fill:#FFFFFF;}
	.st16{fill:none;stroke:#000000;stroke-miterlimit:10;}
</style>
<line id="XMLID_987_" class="st0" x1="89" y1="96.6" x2="91.4" y2="96.6"/>
<line id="XMLID_986_" class="st0" x1="16.7" y1="96.6" x2="22" y2="96.6"/>
<path id="XMLID_983_" class="st1" d="M23.9,90.3v3.1c0,1.7,1.4,3.1,3.1,3.1h56.2c1.7,0,3.1-1.4,3.1-3.1V12.2c0-1.7-1.4-3.1-3.1-3.1
	H67.7L23.9,90.3z"/>
<path id="XMLID_982_" class="st2" d="M17.7,68.5v18.7c0,1.7,1.4,3.1,3.1,3.1H77c1.7,0,3.1-1.4,3.1-3.1V22.1c0-0.3-0.1-0.6-0.3-0.8
	L61.8,3.2C61.5,3,61.3,2.9,61,2.9H20.8c-1.7,0-3.1,1.4-3.1,3.1L17.7,68.5L17.7,68.5z"/>
<path id="XMLID_981_" class="st3" d="M79.8,21.3L76,17.5v69.7c0,1.7-1.4,3.1-3.1,3.1H77c1.7,0,3.1-1.4,3.1-3.1V22.1
	C80.2,21.8,80,21.5,79.8,21.3z"/>
<path id="XMLID_980_" class="st4" d="M83.3,9.1h-4.1c1.7,0,3.1,1.4,3.1,3.1v81.2c0,1.7-1.4,3.1-3.1,3.1h4.1c1.7,0,3.1-1.4,3.1-3.1
	V12.2C86.4,10.5,85,9.1,83.3,9.1z"/>
<path id="XMLID_979_" class="st5" d="M79.8,21.3L61.8,3.2C61.7,3.1,61.5,3,61.4,3v15.5c0,1.7,1.4,3.1,3.1,3.1h15.5
	C80,21.5,79.9,21.4,79.8,21.3z"/>
<path id="XMLID_973_" class="st6" d="M57.2,72.2l28.3-28.3c1.2-1.2,1.2-3.2,0-4.4L81.1,35c-1.2-1.2-3.2-1.2-4.4,0L48.3,63.3
	c-0.2,0.2-0.3,0.5-0.3,0.8v7.2c0,0.6,0.5,1.1,1.1,1.1h7.2C56.7,72.5,57,72.4,57.2,72.2z"/>
<path id="XMLID_961_" class="st7" d="M48,71.4v-7.2c0-0.3,0.1-0.6,0.3-0.8l2.3-2.3l8.8,8.8l-2.3,2.3c-0.2,0.2-0.5,0.3-0.8,0.3h-7.2
	C48.5,72.5,48,72,48,71.4z"/>
<path id="XMLID_960_" class="st8" d="M56.8,72.4l-8.7-8.7c0.1-0.2,0.1-0.3,0.3-0.4l23.9-23.9l8.8,8.8L57.2,72.2
	C57.1,72.3,56.9,72.4,56.8,72.4z"/>
<path id="XMLID_957_" class="st9" d="M53.4,69.1l24.2-24.2c0.6-0.6,0.6-1.4,0-2c-0.6-0.6-1.4-0.6-2,0L51.4,67.1L53.4,69.1z"/>
<path id="XMLID_955_" class="st7" d="M81.1,49.7c0.4,0,0.7-0.1,1-0.4c0.6-0.6,0.6-1.4,0-2l-8.8-8.8c-0.6-0.6-1.4-0.6-2,0
	c-0.6,0.6-0.6,1.4,0,2l8.8,8.8C80.4,49.6,80.7,49.7,81.1,49.7z"/>
<path id="XMLID_942_" class="st10" d="M53.9,33.9L49.7,33c-0.5-1.8-1.2-3.5-2.1-5.1l2.4-3.6c0.4-0.6,0.3-1.4-0.2-2L45,17.6
	c-0.5-0.5-1.4-0.6-2-0.2l-3.6,2.4c-1.6-0.9-3.3-1.6-5.1-2.1l-0.8-4.2c-0.1-0.7-0.8-1.3-1.5-1.3h-6.8c-0.7,0-1.4,0.5-1.5,1.3
	l-0.8,4.2c-1.8,0.5-3.5,1.2-5.1,2.1l-3.6-2.4c-0.6-0.4-1.4-0.3-2,0.2l-4.8,4.8c-0.5,0.5-0.6,1.4-0.2,2L9.6,28
	C8.7,29.5,8,31.2,7.5,33l-4.2,0.8c-0.7,0.1-1.3,0.8-1.3,1.5v6.8c0,0.7,0.5,1.4,1.3,1.5l4.2,0.8c0.5,1.8,1.2,3.5,2.1,5.1l-2.4,3.6
	c-0.4,0.6-0.3,1.4,0.2,2l4.8,4.8c0.5,0.5,1.4,0.6,2,0.2l3.6-2.4c1.6,0.9,3.3,1.6,5.1,2.1l0.8,4.2c0.1,0.7,0.8,1.3,1.5,1.3H32
	c0.7,0,1.4-0.5,1.5-1.3l0.8-4.2c1.8-0.5,3.5-1.2,5.1-2.1l3.6,2.4c0.6,0.4,1.4,0.3,2-0.2l4.8-4.8c0.5-0.5,0.6-1.4,0.2-2l-2.4-3.6
	c0.9-1.6,1.6-3.3,2.1-5.1l4.2-0.8c0.7-0.1,1.3-0.8,1.3-1.5v-6.8C55.2,34.6,54.6,34,53.9,33.9z M28.6,45c-3.4,0-6.2-2.8-6.2-6.2
	s2.8-6.2,6.2-6.2s6.2,2.8,6.2,6.2S32.1,45,28.6,45z"/>
<g id="XMLID_938_">
	<path id="XMLID_939_" class="st11" d="M53.9,33.9L49.7,33c-0.5-1.8-1.2-3.5-2.1-5.1l2.4-3.6c0.4-0.6,0.3-1.4-0.2-2L45,17.6
		c-0.5-0.5-1.4-0.6-2-0.2l-1.4,0.9l4.1,4.1c0.5,0.5,0.6,1.4,0.2,2L43.5,28c0.9,1.6,1.6,3.3,2.1,5.1l4.2,0.8c0.7,0.1,1.3,0.8,1.3,1.5
		v6.8c0,0.7-0.5,1.4-1.3,1.5l-4.2,0.8c-0.5,1.8-1.2,3.5-2.1,5.1l2.4,3.6c0.4,0.6,0.3,1.4-0.2,2l-4.1,4.1l1.4,0.9
		c0.6,0.4,1.4,0.3,2-0.2l4.8-4.8c0.5-0.5,0.6-1.4,0.2-2l-2.4-3.6c0.9-1.6,1.6-3.3,2.1-5.1l4.2-0.8c0.7-0.1,1.3-0.8,1.3-1.5v-6.8
		C55.2,34.6,54.6,34,53.9,33.9z"/>
</g>
<g id="XMLID_931_">
	<ellipse id="XMLID_4895_" class="st12" cx="27.9" cy="38.8" rx="15.2" ry="15.1"/>
	<ellipse id="XMLID_4897_" class="st13" cx="27.9" cy="38.8" rx="11.9" ry="11.8"/>
	<ellipse id="XMLID_4898_" class="st14" cx="27.9" cy="38.8" rx="8.5" ry="8.4"/>
	<ellipse id="XMLID_4899_" cx="27.9" cy="38.8" rx="5.6" ry="5.6"/>
	<ellipse id="XMLID_935_" class="st15" cx="23.5" cy="32.2" rx="2.7" ry="2.7"/>
	<ellipse id="XMLID_934_" class="st15" cx="26.2" cy="39.5" rx="1.7" ry="1.7"/>
</g>
<polyline id="XMLID_929_" class="st16" points="38.9,73.9 43.1,73.9 48.4,72.2 "/>
</svg>
